<svg width="348" height="213" viewBox="0 0 348 213" fill="none" xmlns="http://www.w3.org/2000/svg"
  xmlns:xlink="http://www.w3.org/1999/xlink">
  <g clip-path="url(#clip0_206_58)">
    <rect y="0.925781" width="348" height="212" rx="16" fill="black" />
    <g filter="url(#filter0_f_206_58)">
      <path
        d="M122.292 215.304C21.1753 221.555 -55.538 188.804 -64.8398 181.669V267.285H403.811V139.881C365.236 179.631 223.409 209.053 122.292 215.304Z"
        fill="url(#paint0_linear_206_58)" />
    </g>
    <path
      d="M21.653 160.171C21.7797 160.741 22.014 161.19 22.356 161.52C22.698 161.849 23.173 162.014 23.781 162.014C24.275 162.014 24.674 161.919 24.978 161.729C25.2947 161.526 25.5353 161.273 25.7 160.969C25.8773 160.652 25.9977 160.297 26.061 159.905C26.1243 159.499 26.156 159.088 26.156 158.67V149.474H27.524V159.24C27.524 159.696 27.4607 160.164 27.334 160.646C27.22 161.114 27.011 161.545 26.707 161.938C26.4157 162.318 26.0293 162.634 25.548 162.888C25.0667 163.141 24.465 163.268 23.743 163.268C22.8183 163.268 22.0457 163.033 21.425 162.565C20.8043 162.083 20.418 161.38 20.266 160.456L21.653 160.171ZM37.393 158.48C37.393 157.986 37.3107 157.523 37.146 157.093C36.994 156.662 36.7723 156.288 36.481 155.972C36.1897 155.655 35.835 155.408 35.417 155.231C35.0117 155.041 34.5493 154.946 34.03 154.946C33.5107 154.946 33.042 155.041 32.624 155.231C32.2187 155.408 31.8703 155.655 31.579 155.972C31.3003 156.288 31.0787 156.662 30.914 157.093C30.762 157.523 30.686 157.986 30.686 158.48C30.686 158.974 30.762 159.436 30.914 159.867C31.0787 160.297 31.3003 160.671 31.579 160.988C31.8703 161.304 32.2187 161.558 32.624 161.748C33.042 161.925 33.5107 162.014 34.03 162.014C34.5493 162.014 35.0117 161.925 35.417 161.748C35.835 161.558 36.1897 161.304 36.481 160.988C36.7723 160.671 36.994 160.297 37.146 159.867C37.3107 159.436 37.393 158.974 37.393 158.48ZM38.761 158.48C38.761 159.151 38.6407 159.772 38.4 160.342C38.172 160.912 37.849 161.406 37.431 161.824C37.013 162.242 36.5127 162.571 35.93 162.812C35.36 163.04 34.7267 163.154 34.03 163.154C33.346 163.154 32.7127 163.04 32.13 162.812C31.56 162.571 31.066 162.242 30.648 161.824C30.23 161.406 29.9007 160.912 29.66 160.342C29.432 159.772 29.318 159.151 29.318 158.48C29.318 157.808 29.432 157.188 29.66 156.618C29.9007 156.048 30.23 155.554 30.648 155.136C31.066 154.718 31.56 154.395 32.13 154.167C32.7127 153.926 33.346 153.806 34.03 153.806C34.7267 153.806 35.36 153.926 35.93 154.167C36.5127 154.395 37.013 154.718 37.431 155.136C37.849 155.554 38.172 156.048 38.4 156.618C38.6407 157.188 38.761 157.808 38.761 158.48ZM40.2767 148.562H41.5307V155.459H41.5687C41.708 155.218 41.8854 154.996 42.1007 154.794C42.316 154.591 42.5567 154.42 42.8227 154.281C43.0887 154.129 43.3674 154.015 43.6587 153.939C43.9627 153.85 44.2604 153.806 44.5517 153.806C45.6917 153.806 46.534 154.11 47.0787 154.718C47.6234 155.313 47.8957 156.168 47.8957 157.283V162.926H46.6417V158.005C46.6417 157.017 46.4707 156.263 46.1287 155.744C45.7867 155.212 45.1534 154.946 44.2287 154.946C44.1654 154.946 43.988 154.971 43.6967 155.022C43.4054 155.072 43.095 155.212 42.7657 155.44C42.449 155.668 42.164 156.01 41.9107 156.466C41.6574 156.922 41.5307 157.555 41.5307 158.366V162.926H40.2767V148.562ZM51.2713 154.034C51.2967 154.274 51.3093 154.515 51.3093 154.756C51.322 154.984 51.3283 155.218 51.3283 155.459H51.3663C51.5057 155.218 51.683 154.996 51.8983 154.794C52.1137 154.591 52.3543 154.42 52.6203 154.281C52.8863 154.129 53.165 154.015 53.4563 153.939C53.7603 153.85 54.058 153.806 54.3493 153.806C55.4893 153.806 56.3317 154.11 56.8763 154.718C57.421 155.313 57.6933 156.168 57.6933 157.283V162.926H56.4393V158.005C56.4393 157.017 56.2683 156.263 55.9263 155.744C55.5843 155.212 54.951 154.946 54.0263 154.946C53.963 154.946 53.7857 154.971 53.4943 155.022C53.203 155.072 52.8927 155.212 52.5633 155.44C52.2467 155.668 51.9617 156.01 51.7083 156.466C51.455 156.922 51.3283 157.555 51.3283 158.366V162.926H50.0743V155.991C50.0743 155.75 50.0617 155.446 50.0363 155.079C50.0237 154.711 50.0047 154.363 49.9793 154.034H51.2713ZM66.034 161.672H68.694C69.72 161.672 70.6067 161.52 71.354 161.216C72.114 160.899 72.741 160.487 73.235 159.981C73.7417 159.461 74.1154 158.879 74.356 158.233C74.5967 157.574 74.717 156.896 74.717 156.2C74.717 155.503 74.5967 154.832 74.356 154.186C74.1154 153.527 73.7417 152.944 73.235 152.438C72.741 151.918 72.114 151.507 71.354 151.203C70.6067 150.886 69.72 150.728 68.694 150.728H66.034V161.672ZM64.666 149.474H69.131C69.967 149.474 70.803 149.613 71.639 149.892C72.4877 150.17 73.2477 150.595 73.919 151.165C74.603 151.722 75.154 152.425 75.572 153.274C75.99 154.11 76.199 155.085 76.199 156.2C76.199 157.327 75.99 158.309 75.572 159.145C75.154 159.981 74.603 160.684 73.919 161.254C73.2477 161.811 72.4877 162.229 71.639 162.508C70.803 162.786 69.967 162.926 69.131 162.926H64.666V149.474ZM85.342 158.48C85.342 157.986 85.2597 157.523 85.095 157.093C84.943 156.662 84.7214 156.288 84.43 155.972C84.1387 155.655 83.784 155.408 83.366 155.231C82.9607 155.041 82.4984 154.946 81.979 154.946C81.4597 154.946 80.991 155.041 80.573 155.231C80.1677 155.408 79.8194 155.655 79.528 155.972C79.2494 156.288 79.0277 156.662 78.863 157.093C78.711 157.523 78.635 157.986 78.635 158.48C78.635 158.974 78.711 159.436 78.863 159.867C79.0277 160.297 79.2494 160.671 79.528 160.988C79.8194 161.304 80.1677 161.558 80.573 161.748C80.991 161.925 81.4597 162.014 81.979 162.014C82.4984 162.014 82.9607 161.925 83.366 161.748C83.784 161.558 84.1387 161.304 84.43 160.988C84.7214 160.671 84.943 160.297 85.095 159.867C85.2597 159.436 85.342 158.974 85.342 158.48ZM86.71 158.48C86.71 159.151 86.5897 159.772 86.349 160.342C86.121 160.912 85.798 161.406 85.38 161.824C84.962 162.242 84.4617 162.571 83.879 162.812C83.309 163.04 82.6757 163.154 81.979 163.154C81.295 163.154 80.6617 163.04 80.079 162.812C79.509 162.571 79.015 162.242 78.597 161.824C78.179 161.406 77.8497 160.912 77.609 160.342C77.381 159.772 77.267 159.151 77.267 158.48C77.267 157.808 77.381 157.188 77.609 156.618C77.8497 156.048 78.179 155.554 78.597 155.136C79.015 154.718 79.509 154.395 80.079 154.167C80.6617 153.926 81.295 153.806 81.979 153.806C82.6757 153.806 83.309 153.926 83.879 154.167C84.4617 154.395 84.962 154.718 85.38 155.136C85.798 155.554 86.121 156.048 86.349 156.618C86.5897 157.188 86.71 157.808 86.71 158.48ZM95.1417 157.796C95.1417 156.947 94.8884 156.263 94.3817 155.744C93.8751 155.212 93.1657 154.946 92.2537 154.946C91.8484 154.946 91.4557 155.028 91.0757 155.193C90.6957 155.345 90.3601 155.554 90.0687 155.82C89.7901 156.086 89.5621 156.39 89.3847 156.732C89.2201 157.074 89.1377 157.428 89.1377 157.796H95.1417ZM89.0997 158.822C89.1377 159.265 89.2454 159.683 89.4227 160.076C89.6001 160.468 89.8344 160.81 90.1257 161.102C90.4171 161.38 90.7527 161.602 91.1327 161.767C91.5127 161.931 91.9244 162.014 92.3677 162.014C93.0391 162.014 93.6154 161.862 94.0967 161.558C94.5907 161.241 94.9644 160.88 95.2177 160.475L96.1867 161.273C95.6547 161.944 95.0657 162.425 94.4197 162.717C93.7864 163.008 93.1024 163.154 92.3677 163.154C91.7091 163.154 91.0947 163.04 90.5247 162.812C89.9674 162.571 89.4861 162.242 89.0807 161.824C88.6754 161.406 88.3524 160.912 88.1117 160.342C87.8837 159.772 87.7697 159.151 87.7697 158.48C87.7697 157.808 87.8837 157.188 88.1117 156.618C88.3397 156.048 88.6564 155.554 89.0617 155.136C89.4671 154.718 89.9421 154.395 90.4867 154.167C91.0314 153.926 91.6204 153.806 92.2537 153.806C92.9251 153.806 93.5267 153.926 94.0587 154.167C94.5907 154.407 95.0341 154.73 95.3887 155.136C95.7561 155.528 96.0347 155.997 96.2247 156.542C96.4147 157.074 96.5097 157.644 96.5097 158.252V158.822H89.0997Z"
      fill="white" />
    <path
      d="M28.455 37.4178L32.996 26.4738H35.086V39.9258H33.718V28.2978H33.68L28.816 39.9258H28.094L23.23 28.2978H23.192V39.9258H21.824V26.4738H23.914L28.455 37.4178ZM44.4273 34.7958C44.4273 33.9471 44.174 33.2631 43.6673 32.7438C43.1607 32.2118 42.4513 31.9458 41.5393 31.9458C41.134 31.9458 40.7413 32.0281 40.3613 32.1928C39.9813 32.3448 39.6457 32.5538 39.3543 32.8198C39.0757 33.0858 38.8477 33.3898 38.6703 33.7318C38.5057 34.0738 38.4233 34.4284 38.4233 34.7958H44.4273ZM38.3853 35.8218C38.4233 36.2651 38.531 36.6831 38.7083 37.0758C38.8857 37.4684 39.12 37.8104 39.4113 38.1018C39.7027 38.3804 40.0383 38.6021 40.4183 38.7668C40.7983 38.9314 41.21 39.0138 41.6533 39.0138C42.3247 39.0138 42.901 38.8618 43.3823 38.5578C43.8763 38.2411 44.25 37.8801 44.5033 37.4748L45.4723 38.2728C44.9403 38.9441 44.3513 39.4254 43.7053 39.7168C43.072 40.0081 42.388 40.1538 41.6533 40.1538C40.9947 40.1538 40.3803 40.0398 39.8103 39.8118C39.253 39.5711 38.7717 39.2418 38.3663 38.8238C37.961 38.4058 37.638 37.9118 37.3973 37.3418C37.1693 36.7718 37.0553 36.1511 37.0553 35.4798C37.0553 34.8084 37.1693 34.1878 37.3973 33.6178C37.6253 33.0478 37.942 32.5538 38.3473 32.1358C38.7527 31.7178 39.2277 31.3948 39.7723 31.1668C40.317 30.9261 40.906 30.8058 41.5393 30.8058C42.2107 30.8058 42.8123 30.9261 43.3443 31.1668C43.8763 31.4074 44.3197 31.7304 44.6743 32.1358C45.0417 32.5284 45.3203 32.9971 45.5103 33.5418C45.7003 34.0738 45.7953 34.6438 45.7953 35.2518V35.8218H38.3853ZM47.3089 33.0098C47.3089 32.6804 47.2963 32.3511 47.2709 32.0218C47.2583 31.6924 47.2393 31.3631 47.2139 31.0338H48.5629V32.3828H48.6009C48.9049 31.8634 49.3229 31.4708 49.8549 31.2048C50.3996 30.9388 50.9379 30.8058 51.4699 30.8058C51.7106 30.8058 51.9639 30.8311 52.2299 30.8818C52.5086 30.9324 52.7746 31.0274 53.0279 31.1668C53.2813 31.2934 53.5156 31.4771 53.7309 31.7178C53.9589 31.9584 54.1489 32.2688 54.3009 32.6488C54.5543 32.0788 54.9533 31.6291 55.4979 31.2998C56.0553 30.9704 56.6316 30.8058 57.2269 30.8058C58.3669 30.8058 59.2093 31.1098 59.7539 31.7178C60.2986 32.3131 60.5709 33.1681 60.5709 34.2828V39.9258H59.3169V34.7388C59.3169 33.8394 59.1586 33.1491 58.8419 32.6678C58.5253 32.1864 57.9363 31.9458 57.0749 31.9458C56.6063 31.9458 56.2136 32.0408 55.8969 32.2308C55.5803 32.4081 55.3206 32.6488 55.1179 32.9528C54.9279 33.2568 54.7886 33.6051 54.6999 33.9978C54.6113 34.3778 54.5669 34.7768 54.5669 35.1948V39.9258H53.3129V34.7388C53.3129 33.8394 53.1546 33.1491 52.8379 32.6678C52.5213 32.1864 51.9323 31.9458 51.0709 31.9458C50.9949 31.9458 50.8176 31.9711 50.5389 32.0218C50.2729 32.0724 49.9943 32.2118 49.7029 32.4398C49.4116 32.6678 49.1456 33.0098 48.9049 33.4658C48.6769 33.9218 48.5629 34.5551 48.5629 35.3658V39.9258H47.3089V33.0098ZM70.8416 35.4798C70.8416 34.9858 70.7593 34.5234 70.5946 34.0928C70.4426 33.6621 70.221 33.2884 69.9296 32.9718C69.6383 32.6551 69.2836 32.4081 68.8656 32.2308C68.4603 32.0408 67.998 31.9458 67.4786 31.9458C66.9593 31.9458 66.4843 32.0408 66.0536 32.2308C65.623 32.4081 65.2493 32.6551 64.9326 32.9718C64.616 33.2884 64.369 33.6621 64.1916 34.0928C64.0143 34.5234 63.9256 34.9858 63.9256 35.4798C63.9256 35.9738 64.0143 36.4361 64.1916 36.8668C64.369 37.2974 64.616 37.6711 64.9326 37.9878C65.2493 38.3044 65.623 38.5578 66.0536 38.7478C66.4843 38.9251 66.9593 39.0138 67.4786 39.0138C67.998 39.0138 68.4603 38.9251 68.8656 38.7478C69.2836 38.5578 69.6383 38.3044 69.9296 37.9878C70.221 37.6711 70.4426 37.2974 70.5946 36.8668C70.7593 36.4361 70.8416 35.9738 70.8416 35.4798ZM62.7286 25.5618H63.9826V32.5158H64.0206C64.2233 32.2118 64.464 31.9521 64.7426 31.7368C65.0213 31.5214 65.3126 31.3441 65.6166 31.2048C65.9206 31.0654 66.231 30.9641 66.5476 30.9008C66.877 30.8374 67.1873 30.8058 67.4786 30.8058C68.1753 30.8058 68.8086 30.9261 69.3786 31.1668C69.9613 31.3948 70.4616 31.7178 70.8796 32.1358C71.2976 32.5538 71.6206 33.0478 71.8486 33.6178C72.0893 34.1878 72.2096 34.8084 72.2096 35.4798C72.2096 36.1511 72.0893 36.7718 71.8486 37.3418C71.6206 37.9118 71.2976 38.4058 70.8796 38.8238C70.4616 39.2418 69.9613 39.5711 69.3786 39.8118C68.8086 40.0398 68.1753 40.1538 67.4786 40.1538C67.1873 40.1538 66.877 40.1221 66.5476 40.0588C66.231 39.9954 65.9206 39.8941 65.6166 39.7548C65.3126 39.6154 65.0213 39.4381 64.7426 39.2228C64.464 39.0074 64.2233 38.7478 64.0206 38.4438H63.9826V39.9258H62.7286V25.5618ZM80.4999 34.7958C80.4999 33.9471 80.2465 33.2631 79.7399 32.7438C79.2332 32.2118 78.5239 31.9458 77.6119 31.9458C77.2065 31.9458 76.8139 32.0281 76.4339 32.1928C76.0539 32.3448 75.7182 32.5538 75.4269 32.8198C75.1482 33.0858 74.9202 33.3898 74.7429 33.7318C74.5782 34.0738 74.4959 34.4284 74.4959 34.7958H80.4999ZM74.4579 35.8218C74.4959 36.2651 74.6035 36.6831 74.7809 37.0758C74.9582 37.4684 75.1925 37.8104 75.4839 38.1018C75.7752 38.3804 76.1109 38.6021 76.4909 38.7668C76.8709 38.9314 77.2825 39.0138 77.7259 39.0138C78.3972 39.0138 78.9735 38.8618 79.4549 38.5578C79.9489 38.2411 80.3225 37.8801 80.5759 37.4748L81.5449 38.2728C81.0129 38.9441 80.4239 39.4254 79.7779 39.7168C79.1445 40.0081 78.4605 40.1538 77.7259 40.1538C77.0672 40.1538 76.4529 40.0398 75.8829 39.8118C75.3255 39.5711 74.8442 39.2418 74.4389 38.8238C74.0335 38.4058 73.7105 37.9118 73.4699 37.3418C73.2419 36.7718 73.1279 36.1511 73.1279 35.4798C73.1279 34.8084 73.2419 34.1878 73.4699 33.6178C73.6979 33.0478 74.0145 32.5538 74.4199 32.1358C74.8252 31.7178 75.3002 31.3948 75.8449 31.1668C76.3895 30.9261 76.9785 30.8058 77.6119 30.8058C78.2832 30.8058 78.8849 30.9261 79.4169 31.1668C79.9489 31.4074 80.3922 31.7304 80.7469 32.1358C81.1142 32.5284 81.3929 32.9971 81.5829 33.5418C81.7729 34.0738 81.8679 34.6438 81.8679 35.2518V35.8218H74.4579ZM83.5145 33.8078C83.5145 33.4151 83.5018 33.0161 83.4765 32.6108C83.4638 32.2054 83.4511 31.6798 83.4385 31.0338H84.6735V32.6868H84.7115C84.8001 32.4461 84.9268 32.2181 85.0915 32.0028C85.2561 31.7748 85.4525 31.5721 85.6805 31.3948C85.9211 31.2174 86.1935 31.0781 86.4975 30.9768C86.8141 30.8628 87.1688 30.8058 87.5615 30.8058C87.9161 30.8058 88.2265 30.8438 88.4925 30.9198L88.2455 32.1548C88.0808 32.0914 87.8401 32.0598 87.5235 32.0598C87.0421 32.0598 86.6305 32.1548 86.2885 32.3448C85.9465 32.5221 85.6615 32.7564 85.4335 33.0478C85.2055 33.3264 85.0345 33.6304 84.9205 33.9598C84.8191 34.2891 84.7685 34.6058 84.7685 34.9098V39.9258H83.5145V33.8078ZM93.6421 33.1428C93.4521 32.7754 93.1987 32.4841 92.8821 32.2688C92.5654 32.0534 92.1791 31.9458 91.7231 31.9458C91.5077 31.9458 91.2861 31.9711 91.0581 32.0218C90.8427 32.0724 90.6464 32.1548 90.4691 32.2688C90.2917 32.3701 90.1461 32.5031 90.0321 32.6678C89.9307 32.8324 89.8801 33.0351 89.8801 33.2758C89.8801 33.6938 90.0257 33.9978 90.3171 34.1878C90.6084 34.3778 91.0454 34.5424 91.6281 34.6818L92.9011 34.9858C93.5217 35.1251 94.0347 35.4101 94.4401 35.8408C94.8581 36.2588 95.0671 36.7844 95.0671 37.4178C95.0671 37.8991 94.9657 38.3171 94.7631 38.6718C94.5731 39.0138 94.3134 39.2988 93.9841 39.5268C93.6674 39.7421 93.3001 39.9004 92.8821 40.0018C92.4641 40.1031 92.0397 40.1538 91.6091 40.1538C90.9251 40.1538 90.2854 40.0271 89.6901 39.7738C89.1074 39.5078 88.6071 39.0581 88.1891 38.4248L89.2721 37.6838C89.5254 38.0891 89.8421 38.4121 90.2221 38.6528C90.6147 38.8934 91.0771 39.0138 91.6091 39.0138C91.8624 39.0138 92.1157 38.9884 92.3691 38.9378C92.6224 38.8744 92.8441 38.7858 93.0341 38.6718C93.2367 38.5451 93.3951 38.3868 93.5091 38.1968C93.6357 38.0068 93.6991 37.7851 93.6991 37.5318C93.6991 37.0884 93.5344 36.7718 93.2051 36.5818C92.8757 36.3791 92.4767 36.2208 92.0081 36.1068L90.7921 35.8218C90.6401 35.7838 90.4311 35.7204 90.1651 35.6318C89.9117 35.5431 89.6584 35.4101 89.4051 35.2328C89.1644 35.0554 88.9554 34.8274 88.7781 34.5488C88.6007 34.2574 88.5121 33.9028 88.5121 33.4848C88.5121 33.0288 88.6007 32.6298 88.7781 32.2878C88.9681 31.9458 89.2151 31.6671 89.5191 31.4518C89.8357 31.2364 90.1904 31.0781 90.5831 30.9768C90.9757 30.8628 91.3811 30.8058 91.7991 30.8058C92.4197 30.8058 92.9961 30.9261 93.5281 31.1668C94.0601 31.4074 94.4717 31.8191 94.7631 32.4018L93.6421 33.1428ZM96.2599 25.5618H97.5139V32.4588H97.5519C97.6912 32.2181 97.8686 31.9964 98.0839 31.7938C98.2992 31.5911 98.5399 31.4201 98.8059 31.2808C99.0719 31.1288 99.3506 31.0148 99.6419 30.9388C99.9459 30.8501 100.244 30.8058 100.535 30.8058C101.675 30.8058 102.517 31.1098 103.062 31.7178C103.607 32.3131 103.879 33.1681 103.879 34.2828V39.9258H102.625V35.0048C102.625 34.0168 102.454 33.2631 102.112 32.7438C101.77 32.2118 101.137 31.9458 100.212 31.9458C100.149 31.9458 99.9712 31.9711 99.6799 32.0218C99.3886 32.0724 99.0782 32.2118 98.7489 32.4398C98.4322 32.6678 98.1472 33.0098 97.8939 33.4658C97.6406 33.9218 97.5139 34.5551 97.5139 35.3658V39.9258H96.2599V25.5618ZM107.882 27.6138C107.882 27.8798 107.787 28.1014 107.597 28.2788C107.407 28.4434 107.198 28.5258 106.97 28.5258C106.742 28.5258 106.533 28.4434 106.343 28.2788C106.153 28.1014 106.058 27.8798 106.058 27.6138C106.058 27.3478 106.153 27.1324 106.343 26.9678C106.533 26.7904 106.742 26.7018 106.97 26.7018C107.198 26.7018 107.407 26.7904 107.597 26.9678C107.787 27.1324 107.882 27.3478 107.882 27.6138ZM107.597 39.9258H106.343V31.0338H107.597V39.9258ZM117.975 35.4798C117.975 34.9858 117.893 34.5234 117.728 34.0928C117.576 33.6621 117.354 33.2884 117.063 32.9718C116.772 32.6551 116.417 32.4081 115.999 32.2308C115.594 32.0408 115.131 31.9458 114.612 31.9458C114.093 31.9458 113.618 32.0408 113.187 32.2308C112.756 32.4081 112.383 32.6551 112.066 32.9718C111.749 33.2884 111.502 33.6621 111.325 34.0928C111.148 34.5234 111.059 34.9858 111.059 35.4798C111.059 35.9738 111.148 36.4361 111.325 36.8668C111.502 37.2974 111.749 37.6711 112.066 37.9878C112.383 38.3044 112.756 38.5578 113.187 38.7478C113.618 38.9251 114.093 39.0138 114.612 39.0138C115.131 39.0138 115.594 38.9251 115.999 38.7478C116.417 38.5578 116.772 38.3044 117.063 37.9878C117.354 37.6711 117.576 37.2974 117.728 36.8668C117.893 36.4361 117.975 35.9738 117.975 35.4798ZM109.862 31.0338H111.116V32.5158H111.154C111.357 32.2118 111.597 31.9521 111.876 31.7368C112.155 31.5214 112.446 31.3441 112.75 31.2048C113.054 31.0654 113.364 30.9641 113.681 30.9008C114.01 30.8374 114.321 30.8058 114.612 30.8058C115.309 30.8058 115.942 30.9261 116.512 31.1668C117.095 31.3948 117.595 31.7178 118.013 32.1358C118.431 32.5538 118.754 33.0478 118.982 33.6178C119.223 34.1878 119.343 34.8084 119.343 35.4798C119.343 36.1511 119.223 36.7718 118.982 37.3418C118.754 37.9118 118.431 38.4058 118.013 38.8238C117.595 39.2418 117.095 39.5711 116.512 39.8118C115.942 40.0398 115.309 40.1538 114.612 40.1538C114.321 40.1538 114.01 40.1221 113.681 40.0588C113.364 39.9954 113.054 39.8941 112.75 39.7548C112.446 39.6154 112.155 39.4381 111.876 39.2228C111.597 39.0074 111.357 38.7478 111.154 38.4438H111.116V45.3978H109.862V31.0338ZM136.778 37.7978C136.55 38.1398 136.265 38.4628 135.923 38.7668C135.594 39.0708 135.214 39.3368 134.783 39.5648C134.353 39.7801 133.884 39.9511 133.377 40.0778C132.883 40.2044 132.358 40.2678 131.8 40.2678C130.8 40.2678 129.869 40.0904 129.007 39.7358C128.159 39.3811 127.418 38.8934 126.784 38.2728C126.164 37.6394 125.676 36.8921 125.321 36.0308C124.967 35.1694 124.789 34.2258 124.789 33.1998C124.789 32.1738 124.967 31.2301 125.321 30.3688C125.676 29.5074 126.164 28.7664 126.784 28.1458C127.418 27.5124 128.159 27.0184 129.007 26.6638C129.869 26.3091 130.8 26.1318 131.8 26.1318C132.636 26.1318 133.472 26.2964 134.308 26.6258C135.144 26.9551 135.86 27.4998 136.455 28.2598L135.258 29.1528C135.119 28.9374 134.929 28.7221 134.688 28.5068C134.448 28.2914 134.169 28.1014 133.852 27.9368C133.548 27.7721 133.219 27.6391 132.864 27.5378C132.51 27.4364 132.155 27.3858 131.8 27.3858C130.939 27.3858 130.166 27.5441 129.482 27.8608C128.798 28.1774 128.216 28.6018 127.734 29.1338C127.266 29.6658 126.905 30.2864 126.651 30.9958C126.398 31.6924 126.271 32.4271 126.271 33.1998C126.271 33.9724 126.398 34.7134 126.651 35.4228C126.905 36.1194 127.266 36.7338 127.734 37.2658C128.216 37.7978 128.798 38.2221 129.482 38.5388C130.166 38.8554 130.939 39.0138 131.8 39.0138C132.155 39.0138 132.503 38.9821 132.845 38.9188C133.2 38.8554 133.542 38.7478 133.871 38.5958C134.213 38.4438 134.53 38.2411 134.821 37.9878C135.125 37.7218 135.404 37.3924 135.657 36.9998L136.778 37.7978ZM142.917 35.4988C142.601 35.4988 142.202 35.5178 141.72 35.5558C141.252 35.5811 140.796 35.6571 140.352 35.7838C139.922 35.8978 139.548 36.0814 139.231 36.3348C138.927 36.5881 138.775 36.9364 138.775 37.3798C138.775 37.6711 138.832 37.9244 138.946 38.1398C139.073 38.3424 139.238 38.5134 139.44 38.6528C139.643 38.7794 139.865 38.8744 140.105 38.9378C140.359 38.9884 140.612 39.0138 140.865 39.0138C141.321 39.0138 141.714 38.9378 142.043 38.7858C142.385 38.6338 142.67 38.4311 142.898 38.1778C143.126 37.9118 143.291 37.6078 143.392 37.2658C143.506 36.9111 143.563 36.5374 143.563 36.1448V35.4988H142.917ZM143.563 34.4728V34.2448C143.563 32.7121 142.803 31.9458 141.283 31.9458C140.245 31.9458 139.339 32.2941 138.566 32.9908L137.806 32.0978C138.642 31.2364 139.896 30.8058 141.568 30.8058C141.999 30.8058 142.411 30.8691 142.803 30.9958C143.209 31.1224 143.557 31.3188 143.848 31.5848C144.14 31.8381 144.374 32.1611 144.551 32.5538C144.729 32.9464 144.817 33.4151 144.817 33.9598V37.9308C144.817 38.2728 144.83 38.6338 144.855 39.0138C144.893 39.3811 144.931 39.6851 144.969 39.9258H143.753C143.715 39.7104 143.684 39.4761 143.658 39.2228C143.646 38.9694 143.639 38.7224 143.639 38.4818H143.601C143.234 39.0771 142.797 39.5078 142.29 39.7738C141.796 40.0271 141.188 40.1538 140.466 40.1538C140.074 40.1538 139.694 40.0968 139.326 39.9828C138.959 39.8814 138.63 39.7231 138.338 39.5078C138.06 39.2798 137.832 39.0074 137.654 38.6908C137.49 38.3614 137.407 37.9814 137.407 37.5508C137.407 36.8288 137.591 36.2651 137.958 35.8598C138.338 35.4418 138.807 35.1314 139.364 34.9288C139.934 34.7261 140.536 34.5994 141.169 34.5488C141.815 34.4981 142.404 34.4728 142.936 34.4728H143.563ZM147.089 33.8078C147.089 33.4151 147.076 33.0161 147.051 32.6108C147.038 32.2054 147.025 31.6798 147.013 31.0338H148.248V32.6868H148.286C148.374 32.4461 148.501 32.2181 148.666 32.0028C148.83 31.7748 149.027 31.5721 149.255 31.3948C149.495 31.2174 149.768 31.0781 150.072 30.9768C150.388 30.8628 150.743 30.8058 151.136 30.8058C151.49 30.8058 151.801 30.8438 152.067 30.9198L151.82 32.1548C151.655 32.0914 151.414 32.0598 151.098 32.0598C150.616 32.0598 150.205 32.1548 149.863 32.3448C149.521 32.5221 149.236 32.7564 149.008 33.0478C148.78 33.3264 148.609 33.6304 148.495 33.9598C148.393 34.2891 148.343 34.6058 148.343 34.9098V39.9258H147.089V33.8078ZM152.93 35.4798C152.93 35.9738 153.006 36.4361 153.158 36.8668C153.323 37.2974 153.551 37.6711 153.842 37.9878C154.134 38.3044 154.482 38.5578 154.887 38.7478C155.305 38.9251 155.774 39.0138 156.293 39.0138C156.8 39.0138 157.269 38.9251 157.699 38.7478C158.143 38.5578 158.523 38.3044 158.839 37.9878C159.156 37.6711 159.403 37.2974 159.58 36.8668C159.758 36.4361 159.846 35.9738 159.846 35.4798C159.846 34.9858 159.758 34.5234 159.58 34.0928C159.403 33.6621 159.156 33.2884 158.839 32.9718C158.523 32.6551 158.143 32.4081 157.699 32.2308C157.269 32.0408 156.8 31.9458 156.293 31.9458C155.774 31.9458 155.305 32.0408 154.887 32.2308C154.482 32.4081 154.134 32.6551 153.842 32.9718C153.551 33.2884 153.323 33.6621 153.158 34.0928C153.006 34.5234 152.93 34.9858 152.93 35.4798ZM161.043 39.9258H159.789V38.4438H159.751C159.549 38.7478 159.308 39.0074 159.029 39.2228C158.751 39.4381 158.459 39.6154 158.155 39.7548C157.851 39.8941 157.535 39.9954 157.205 40.0588C156.889 40.1221 156.585 40.1538 156.293 40.1538C155.597 40.1538 154.957 40.0398 154.374 39.8118C153.804 39.5711 153.31 39.2418 152.892 38.8238C152.474 38.4058 152.145 37.9118 151.904 37.3418C151.676 36.7718 151.562 36.1511 151.562 35.4798C151.562 34.8084 151.676 34.1878 151.904 33.6178C152.145 33.0478 152.474 32.5538 152.892 32.1358C153.31 31.7178 153.804 31.3948 154.374 31.1668C154.957 30.9261 155.597 30.8058 156.293 30.8058C156.585 30.8058 156.889 30.8374 157.205 30.9008C157.535 30.9641 157.851 31.0654 158.155 31.2048C158.459 31.3441 158.751 31.5214 159.029 31.7368C159.308 31.9521 159.549 32.2118 159.751 32.5158H159.789V25.5618H161.043V39.9258ZM170.1 34.7198H172.627L173.045 31.6418H170.518L170.1 34.7198ZM168.789 35.8598H166.851V34.7198H168.941L169.359 31.6418H167.307V30.5018H169.53L170.081 26.4738H171.24L170.689 30.5018H173.216L173.767 26.4738H174.926L174.375 30.5018H176.085V31.6418H174.204L173.786 34.7198H175.591V35.8598H173.634L173.064 39.9258H171.905L172.475 35.8598H169.948L169.378 39.9258H168.219L168.789 35.8598ZM182.595 39.9258H181.227V28.1838L178.814 30.3118L177.959 29.2858L181.379 26.4738H182.595V39.9258Z"
      fill="white" />
    <path
      d="M299.224 179.694C298.915 179.694 298.669 179.776 298.488 179.942C298.312 180.107 298.179 180.312 298.088 180.558C297.997 180.803 297.939 181.064 297.912 181.342C297.891 181.619 297.88 181.87 297.88 182.094C297.88 182.318 297.891 182.568 297.912 182.846C297.939 183.123 297.997 183.384 298.088 183.63C298.179 183.875 298.312 184.08 298.488 184.246C298.669 184.411 298.915 184.494 299.224 184.494C299.533 184.494 299.776 184.411 299.952 184.246C300.133 184.08 300.269 183.875 300.36 183.63C300.451 183.384 300.507 183.123 300.528 182.846C300.555 182.568 300.568 182.318 300.568 182.094C300.568 181.87 300.555 181.619 300.528 181.342C300.507 181.064 300.451 180.803 300.36 180.558C300.269 180.312 300.133 180.107 299.952 179.942C299.776 179.776 299.533 179.694 299.224 179.694ZM299.224 179.166C299.629 179.166 299.957 179.259 300.208 179.446C300.459 179.632 300.653 179.87 300.792 180.158C300.931 180.446 301.024 180.763 301.072 181.11C301.12 181.451 301.144 181.779 301.144 182.094C301.144 182.408 301.12 182.739 301.072 183.086C301.024 183.427 300.931 183.742 300.792 184.03C300.653 184.318 300.459 184.555 300.208 184.742C299.957 184.928 299.629 185.022 299.224 185.022C298.819 185.022 298.491 184.928 298.24 184.742C297.989 184.555 297.795 184.318 297.656 184.03C297.517 183.742 297.424 183.427 297.376 183.086C297.328 182.739 297.304 182.408 297.304 182.094C297.304 181.779 297.328 181.451 297.376 181.11C297.424 180.763 297.517 180.446 297.656 180.158C297.795 179.87 297.989 179.632 298.24 179.446C298.491 179.259 298.819 179.166 299.224 179.166ZM303.909 184.926H303.333V179.982L302.317 180.878L301.957 180.446L303.397 179.262H303.909V184.926ZM305.755 185.07L305.291 184.918L307.715 179.118L308.171 179.278L305.755 185.07ZM310.116 179.694C309.806 179.694 309.561 179.776 309.38 179.942C309.204 180.107 309.07 180.312 308.98 180.558C308.889 180.803 308.83 181.064 308.804 181.342C308.782 181.619 308.772 181.87 308.772 182.094C308.772 182.318 308.782 182.568 308.804 182.846C308.83 183.123 308.889 183.384 308.98 183.63C309.07 183.875 309.204 184.08 309.38 184.246C309.561 184.411 309.806 184.494 310.116 184.494C310.425 184.494 310.668 184.411 310.844 184.246C311.025 184.08 311.161 183.875 311.252 183.63C311.342 183.384 311.398 183.123 311.42 182.846C311.446 182.568 311.46 182.318 311.46 182.094C311.46 181.87 311.446 181.619 311.42 181.342C311.398 181.064 311.342 180.803 311.252 180.558C311.161 180.312 311.025 180.107 310.844 179.942C310.668 179.776 310.425 179.694 310.116 179.694ZM310.116 179.166C310.521 179.166 310.849 179.259 311.1 179.446C311.35 179.632 311.545 179.87 311.684 180.158C311.822 180.446 311.916 180.763 311.964 181.11C312.012 181.451 312.036 181.779 312.036 182.094C312.036 182.408 312.012 182.739 311.964 183.086C311.916 183.427 311.822 183.742 311.684 184.03C311.545 184.318 311.35 184.555 311.1 184.742C310.849 184.928 310.521 185.022 310.116 185.022C309.71 185.022 309.382 184.928 309.132 184.742C308.881 184.555 308.686 184.318 308.548 184.03C308.409 183.742 308.316 183.427 308.268 183.086C308.22 182.739 308.196 182.408 308.196 182.094C308.196 181.779 308.22 181.451 308.268 181.11C308.316 180.763 308.409 180.446 308.548 180.158C308.686 179.87 308.881 179.632 309.132 179.446C309.382 179.259 309.71 179.166 310.116 179.166ZM314.801 184.926H314.225V179.982L313.209 180.878L312.849 180.446L314.289 179.262H314.801V184.926ZM316.646 185.07L316.182 184.918L318.606 179.118L319.062 179.278L316.646 185.07ZM322.767 184.926H319.167V184.262L321.423 181.966C321.508 181.88 321.594 181.79 321.679 181.694C321.764 181.598 321.842 181.496 321.911 181.39C321.98 181.283 322.036 181.171 322.079 181.054C322.122 180.936 322.143 180.814 322.143 180.686C322.143 180.531 322.114 180.392 322.055 180.27C322.002 180.147 321.924 180.043 321.823 179.958C321.722 179.872 321.604 179.808 321.471 179.766C321.338 179.718 321.196 179.694 321.047 179.694C320.759 179.694 320.514 179.774 320.311 179.934C320.108 180.094 319.978 180.31 319.919 180.582L319.311 180.518C319.391 180.096 319.583 179.766 319.887 179.526C320.196 179.286 320.57 179.166 321.007 179.166C321.236 179.166 321.452 179.198 321.655 179.262C321.863 179.32 322.044 179.411 322.199 179.534C322.359 179.656 322.484 179.811 322.575 179.998C322.671 180.179 322.719 180.392 322.719 180.638C322.719 180.856 322.684 181.056 322.615 181.238C322.551 181.419 322.466 181.59 322.359 181.75C322.252 181.91 322.13 182.062 321.991 182.206C321.858 182.35 321.719 182.491 321.575 182.63L319.791 184.398H322.767V184.926ZM324.54 181.694H324.836C325.002 181.694 325.159 181.675 325.308 181.638C325.463 181.6 325.596 181.542 325.708 181.462C325.82 181.376 325.908 181.267 325.972 181.134C326.042 181 326.076 180.84 326.076 180.654C326.076 180.35 325.983 180.115 325.796 179.95C325.615 179.779 325.359 179.694 325.028 179.694C324.788 179.694 324.578 179.747 324.396 179.854C324.215 179.96 324.066 180.115 323.948 180.318L323.444 180.062C323.615 179.758 323.831 179.534 324.092 179.39C324.359 179.24 324.666 179.166 325.012 179.166C325.236 179.166 325.447 179.198 325.644 179.262C325.842 179.326 326.015 179.422 326.164 179.55C326.314 179.672 326.431 179.827 326.516 180.014C326.607 180.195 326.652 180.403 326.652 180.638C326.652 180.792 326.626 180.939 326.572 181.078C326.524 181.216 326.455 181.342 326.364 181.454C326.279 181.566 326.178 181.664 326.06 181.75C325.943 181.83 325.82 181.891 325.692 181.934L325.716 181.95C325.876 181.982 326.023 182.043 326.156 182.134C326.29 182.219 326.404 182.326 326.5 182.454C326.596 182.582 326.671 182.726 326.724 182.886C326.778 183.046 326.804 183.214 326.804 183.39C326.804 183.651 326.756 183.883 326.66 184.086C326.564 184.288 326.434 184.459 326.268 184.598C326.103 184.736 325.911 184.843 325.692 184.918C325.474 184.987 325.242 185.022 324.996 185.022C324.58 185.022 324.218 184.931 323.908 184.75C323.599 184.568 323.367 184.278 323.212 183.878L323.82 183.694C323.916 183.966 324.058 184.168 324.244 184.302C324.436 184.43 324.703 184.494 325.044 184.494C325.204 184.494 325.356 184.467 325.5 184.414C325.644 184.36 325.77 184.286 325.876 184.19C325.988 184.088 326.074 183.968 326.132 183.83C326.196 183.691 326.228 183.539 326.228 183.374C326.228 183.16 326.188 182.982 326.108 182.838C326.028 182.688 325.922 182.568 325.788 182.478C325.655 182.387 325.5 182.323 325.324 182.286C325.154 182.243 324.975 182.222 324.788 182.222H324.54V181.694Z"
      fill="white" />
    <path
      d="M22.224 179.694C21.9147 179.694 21.6693 179.776 21.488 179.942C21.312 180.107 21.1787 180.312 21.088 180.558C20.9973 180.803 20.9387 181.064 20.912 181.342C20.8907 181.619 20.88 181.87 20.88 182.094C20.88 182.318 20.8907 182.568 20.912 182.846C20.9387 183.123 20.9973 183.384 21.088 183.63C21.1787 183.875 21.312 184.08 21.488 184.246C21.6693 184.411 21.9147 184.494 22.224 184.494C22.5333 184.494 22.776 184.411 22.952 184.246C23.1333 184.08 23.2693 183.875 23.36 183.63C23.4507 183.384 23.5067 183.123 23.528 182.846C23.5547 182.568 23.568 182.318 23.568 182.094C23.568 181.87 23.5547 181.619 23.528 181.342C23.5067 181.064 23.4507 180.803 23.36 180.558C23.2693 180.312 23.1333 180.107 22.952 179.942C22.776 179.776 22.5333 179.694 22.224 179.694ZM22.224 179.166C22.6293 179.166 22.9573 179.259 23.208 179.446C23.4587 179.632 23.6533 179.87 23.792 180.158C23.9307 180.446 24.024 180.763 24.072 181.11C24.12 181.451 24.144 181.779 24.144 182.094C24.144 182.408 24.12 182.739 24.072 183.086C24.024 183.427 23.9307 183.742 23.792 184.03C23.6533 184.318 23.4587 184.555 23.208 184.742C22.9573 184.928 22.6293 185.022 22.224 185.022C21.8187 185.022 21.4907 184.928 21.24 184.742C20.9893 184.555 20.7947 184.318 20.656 184.03C20.5173 183.742 20.424 183.427 20.376 183.086C20.328 182.739 20.304 182.408 20.304 182.094C20.304 181.779 20.328 181.451 20.376 181.11C20.424 180.763 20.5173 180.446 20.656 180.158C20.7947 179.87 20.9893 179.632 21.24 179.446C21.4907 179.259 21.8187 179.166 22.224 179.166ZM25.6693 182.926L24.3093 181.182H25.0293L26.0693 182.582L27.0613 181.182H27.7173L26.4133 182.926L27.9813 184.926H27.2613L26.0053 183.286L24.7973 184.926H24.1253L25.6693 182.926ZM31.1527 180.918C31.1527 180.736 31.1207 180.571 31.0567 180.422C30.998 180.272 30.9127 180.144 30.8007 180.038C30.6887 179.931 30.5554 179.848 30.4007 179.79C30.246 179.726 30.0754 179.694 29.8887 179.694C29.702 179.694 29.5314 179.726 29.3767 179.79C29.222 179.848 29.0887 179.931 28.9767 180.038C28.8647 180.144 28.7767 180.272 28.7127 180.422C28.654 180.571 28.6247 180.736 28.6247 180.918C28.6247 181.099 28.654 181.264 28.7127 181.414C28.7767 181.563 28.8647 181.694 28.9767 181.806C29.0887 181.912 29.222 181.995 29.3767 182.054C29.5314 182.112 29.702 182.142 29.8887 182.142C30.0754 182.142 30.246 182.112 30.4007 182.054C30.5554 181.995 30.6887 181.912 30.8007 181.806C30.9127 181.694 30.998 181.563 31.0567 181.414C31.1207 181.264 31.1527 181.099 31.1527 180.918ZM30.5767 182.494L30.5607 182.478C30.47 182.542 30.3474 182.59 30.1927 182.622C30.0434 182.654 29.9047 182.67 29.7767 182.67C29.5314 182.67 29.302 182.627 29.0887 182.542C28.8807 182.451 28.6994 182.328 28.5447 182.174C28.39 182.019 28.2674 181.835 28.1767 181.622C28.0914 181.408 28.0487 181.174 28.0487 180.918C28.0487 180.656 28.094 180.419 28.1847 180.206C28.2754 179.992 28.4034 179.808 28.5687 179.654C28.734 179.499 28.9287 179.379 29.1527 179.294C29.3767 179.208 29.622 179.166 29.8887 179.166C30.1554 179.166 30.4007 179.208 30.6247 179.294C30.8487 179.379 31.0434 179.499 31.2087 179.654C31.374 179.808 31.502 179.992 31.5927 180.206C31.6834 180.419 31.7287 180.656 31.7287 180.918C31.7287 181.232 31.6807 181.507 31.5847 181.742C31.494 181.976 31.3794 182.208 31.2407 182.438L29.7127 184.926H29.0327L30.5767 182.494ZM34.014 179.694C33.7047 179.694 33.4593 179.776 33.278 179.942C33.102 180.107 32.9687 180.312 32.878 180.558C32.7873 180.803 32.7287 181.064 32.702 181.342C32.6807 181.619 32.67 181.87 32.67 182.094C32.67 182.318 32.6807 182.568 32.702 182.846C32.7287 183.123 32.7873 183.384 32.878 183.63C32.9687 183.875 33.102 184.08 33.278 184.246C33.4593 184.411 33.7047 184.494 34.014 184.494C34.3233 184.494 34.566 184.411 34.742 184.246C34.9233 184.08 35.0593 183.875 35.15 183.63C35.2407 183.384 35.2967 183.123 35.318 182.846C35.3447 182.568 35.358 182.318 35.358 182.094C35.358 181.87 35.3447 181.619 35.318 181.342C35.2967 181.064 35.2407 180.803 35.15 180.558C35.0593 180.312 34.9233 180.107 34.742 179.942C34.566 179.776 34.3233 179.694 34.014 179.694ZM34.014 179.166C34.4193 179.166 34.7473 179.259 34.998 179.446C35.2487 179.632 35.4433 179.87 35.582 180.158C35.7207 180.446 35.814 180.763 35.862 181.11C35.91 181.451 35.934 181.779 35.934 182.094C35.934 182.408 35.91 182.739 35.862 183.086C35.814 183.427 35.7207 183.742 35.582 184.03C35.4433 184.318 35.2487 184.555 34.998 184.742C34.7473 184.928 34.4193 185.022 34.014 185.022C33.6087 185.022 33.2807 184.928 33.03 184.742C32.7793 184.555 32.5847 184.318 32.446 184.03C32.3073 183.742 32.214 183.427 32.166 183.086C32.118 182.739 32.094 182.408 32.094 182.094C32.094 181.779 32.118 181.451 32.166 181.11C32.214 180.763 32.3073 180.446 32.446 180.158C32.5847 179.87 32.7793 179.632 33.03 179.446C33.2807 179.259 33.6087 179.166 34.014 179.166ZM37.1793 184.398H38.2993C38.7313 184.398 39.1046 184.334 39.4193 184.206C39.7393 184.072 40.0033 183.899 40.2113 183.686C40.4246 183.467 40.582 183.222 40.6833 182.95C40.7846 182.672 40.8353 182.387 40.8353 182.094C40.8353 181.8 40.7846 181.518 40.6833 181.246C40.582 180.968 40.4246 180.723 40.2113 180.51C40.0033 180.291 39.7393 180.118 39.4193 179.99C39.1046 179.856 38.7313 179.79 38.2993 179.79H37.1793V184.398ZM36.6033 179.262H38.4833C38.8353 179.262 39.1873 179.32 39.5393 179.438C39.8966 179.555 40.2166 179.734 40.4993 179.974C40.7873 180.208 41.0193 180.504 41.1953 180.862C41.3713 181.214 41.4593 181.624 41.4593 182.094C41.4593 182.568 41.3713 182.982 41.1953 183.334C41.0193 183.686 40.7873 183.982 40.4993 184.222C40.2166 184.456 39.8966 184.632 39.5393 184.75C39.1873 184.867 38.8353 184.926 38.4833 184.926H36.6033V179.262ZM45.245 179.79H42.925L42.893 181.494C43.0157 181.446 43.141 181.411 43.269 181.39C43.397 181.368 43.525 181.358 43.653 181.358C43.9197 181.358 44.1623 181.403 44.381 181.494C44.5997 181.584 44.7863 181.712 44.941 181.878C45.101 182.038 45.2237 182.23 45.309 182.454C45.3997 182.672 45.445 182.912 45.445 183.174C45.445 183.446 45.397 183.696 45.301 183.926C45.205 184.15 45.0717 184.344 44.901 184.51C44.7303 184.67 44.5277 184.795 44.293 184.886C44.0637 184.976 43.813 185.022 43.541 185.022C43.1837 185.022 42.861 184.936 42.573 184.766C42.285 184.595 42.0637 184.344 41.909 184.014L42.477 183.766C42.5837 183.99 42.733 184.168 42.925 184.302C43.117 184.43 43.3383 184.494 43.589 184.494C43.7703 184.494 43.9383 184.462 44.093 184.398C44.2477 184.328 44.381 184.238 44.493 184.126C44.6103 184.014 44.701 183.88 44.765 183.726C44.8343 183.571 44.869 183.406 44.869 183.23C44.869 183.032 44.8343 182.851 44.765 182.686C44.6957 182.52 44.5997 182.379 44.477 182.262C44.3543 182.139 44.2077 182.046 44.037 181.982C43.8663 181.918 43.6797 181.886 43.477 181.886C43.2743 181.886 43.0717 181.915 42.869 181.974C42.6717 182.027 42.4823 182.102 42.301 182.198L42.357 179.262H45.245V179.79ZM47.2823 181.694H47.5783C47.7436 181.694 47.901 181.675 48.0503 181.638C48.205 181.6 48.3383 181.542 48.4503 181.462C48.5623 181.376 48.6503 181.267 48.7143 181.134C48.7836 181 48.8183 180.84 48.8183 180.654C48.8183 180.35 48.725 180.115 48.5383 179.95C48.357 179.779 48.101 179.694 47.7703 179.694C47.5303 179.694 47.3196 179.747 47.1383 179.854C46.957 179.96 46.8076 180.115 46.6903 180.318L46.1863 180.062C46.357 179.758 46.573 179.534 46.8343 179.39C47.101 179.24 47.4076 179.166 47.7543 179.166C47.9783 179.166 48.189 179.198 48.3863 179.262C48.5836 179.326 48.757 179.422 48.9063 179.55C49.0556 179.672 49.173 179.827 49.2583 180.014C49.349 180.195 49.3943 180.403 49.3943 180.638C49.3943 180.792 49.3676 180.939 49.3143 181.078C49.2663 181.216 49.197 181.342 49.1063 181.454C49.021 181.566 48.9196 181.664 48.8023 181.75C48.685 181.83 48.5623 181.891 48.4343 181.934L48.4583 181.95C48.6183 181.982 48.765 182.043 48.8983 182.134C49.0316 182.219 49.1463 182.326 49.2423 182.454C49.3383 182.582 49.413 182.726 49.4663 182.886C49.5196 183.046 49.5463 183.214 49.5463 183.39C49.5463 183.651 49.4983 183.883 49.4023 184.086C49.3063 184.288 49.1756 184.459 49.0103 184.598C48.845 184.736 48.653 184.843 48.4343 184.918C48.2156 184.987 47.9836 185.022 47.7383 185.022C47.3223 185.022 46.9596 184.931 46.6503 184.75C46.341 184.568 46.109 184.278 45.9543 183.878L46.5623 183.694C46.6583 183.966 46.7996 184.168 46.9863 184.302C47.1783 184.43 47.445 184.494 47.7863 184.494C47.9463 184.494 48.0983 184.467 48.2423 184.414C48.3863 184.36 48.5116 184.286 48.6183 184.19C48.7303 184.088 48.8156 183.968 48.8743 183.83C48.9383 183.691 48.9703 183.539 48.9703 183.374C48.9703 183.16 48.9303 182.982 48.8503 182.838C48.7703 182.688 48.6636 182.568 48.5303 182.478C48.397 182.387 48.2423 182.323 48.0663 182.286C47.8956 182.243 47.717 182.222 47.5303 182.222H47.2823V181.694ZM53.7676 183.054C53.7676 182.846 53.733 182.651 53.6636 182.47C53.5996 182.288 53.5063 182.131 53.3836 181.998C53.261 181.864 53.1116 181.76 52.9356 181.686C52.765 181.606 52.5703 181.566 52.3516 181.566C52.133 181.566 51.933 181.606 51.7516 181.686C51.5703 181.76 51.413 181.864 51.2796 181.998C51.1463 182.131 51.0423 182.288 50.9676 182.47C50.893 182.651 50.8556 182.846 50.8556 183.054C50.8556 183.262 50.893 183.456 50.9676 183.638C51.0423 183.819 51.1463 183.976 51.2796 184.11C51.413 184.243 51.5703 184.35 51.7516 184.43C51.933 184.504 52.133 184.542 52.3516 184.542C52.5703 184.542 52.765 184.504 52.9356 184.43C53.1116 184.35 53.261 184.243 53.3836 184.11C53.5063 183.976 53.5996 183.819 53.6636 183.638C53.733 183.456 53.7676 183.262 53.7676 183.054ZM50.3516 178.878H50.8796V181.806H50.8956C50.981 181.678 51.0823 181.568 51.1996 181.478C51.317 181.387 51.4396 181.312 51.5676 181.254C51.6956 181.195 51.8263 181.152 51.9596 181.126C52.0983 181.099 52.229 181.086 52.3516 181.086C52.645 181.086 52.9116 181.136 53.1516 181.238C53.397 181.334 53.6076 181.47 53.7836 181.646C53.9596 181.822 54.0956 182.03 54.1916 182.27C54.293 182.51 54.3436 182.771 54.3436 183.054C54.3436 183.336 54.293 183.598 54.1916 183.838C54.0956 184.078 53.9596 184.286 53.7836 184.462C53.6076 184.638 53.397 184.776 53.1516 184.878C52.9116 184.974 52.645 185.022 52.3516 185.022C52.229 185.022 52.0983 185.008 51.9596 184.982C51.8263 184.955 51.6956 184.912 51.5676 184.854C51.4396 184.795 51.317 184.72 51.1996 184.63C51.0823 184.539 50.981 184.43 50.8956 184.302H50.8796V184.926H50.3516V178.878ZM57.7862 183.334C57.7862 183.168 57.7569 183.016 57.6982 182.878C57.6396 182.734 57.5569 182.611 57.4502 182.51C57.3489 182.403 57.2209 182.32 57.0662 182.262C56.9169 182.203 56.7516 182.174 56.5702 182.174C56.3836 182.174 56.2156 182.203 56.0662 182.262C55.9169 182.32 55.7889 182.403 55.6822 182.51C55.5809 182.611 55.5009 182.734 55.4422 182.878C55.3836 183.016 55.3542 183.168 55.3542 183.334C55.3542 183.499 55.3836 183.654 55.4422 183.798C55.5009 183.936 55.5809 184.059 55.6822 184.166C55.7889 184.267 55.9169 184.347 56.0662 184.406C56.2156 184.464 56.3836 184.494 56.5702 184.494C56.7516 184.494 56.9169 184.464 57.0662 184.406C57.2209 184.347 57.3489 184.267 57.4502 184.166C57.5569 184.059 57.6396 183.936 57.6982 183.798C57.7569 183.654 57.7862 183.499 57.7862 183.334ZM57.5782 180.694C57.5782 180.55 57.5516 180.416 57.4982 180.294C57.4502 180.171 57.3809 180.067 57.2902 179.982C57.1996 179.891 57.0929 179.822 56.9702 179.774C56.8476 179.72 56.7142 179.694 56.5702 179.694C56.4262 179.694 56.2929 179.72 56.1702 179.774C56.0476 179.822 55.9409 179.891 55.8502 179.982C55.7596 180.067 55.6876 180.171 55.6342 180.294C55.5862 180.416 55.5622 180.55 55.5622 180.694C55.5622 180.838 55.5862 180.971 55.6342 181.094C55.6876 181.216 55.7596 181.323 55.8502 181.414C55.9409 181.499 56.0476 181.568 56.1702 181.622C56.2929 181.67 56.4262 181.694 56.5702 181.694C56.7142 181.694 56.8476 181.67 56.9702 181.622C57.0929 181.568 57.1996 181.499 57.2902 181.414C57.3809 181.323 57.4502 181.216 57.4982 181.094C57.5516 180.971 57.5782 180.838 57.5782 180.694ZM55.8342 181.91C55.7116 181.867 55.5969 181.806 55.4902 181.726C55.3889 181.64 55.3009 181.542 55.2262 181.43C55.1516 181.318 55.0929 181.195 55.0502 181.062C55.0076 180.928 54.9862 180.79 54.9862 180.646C54.9862 180.422 55.0289 180.219 55.1142 180.038C55.1996 179.851 55.3142 179.694 55.4582 179.566C55.6022 179.438 55.7702 179.339 55.9622 179.27C56.1542 179.2 56.3569 179.166 56.5702 179.166C56.7836 179.166 56.9862 179.2 57.1782 179.27C57.3702 179.339 57.5382 179.438 57.6822 179.566C57.8262 179.694 57.9409 179.851 58.0262 180.038C58.1116 180.219 58.1542 180.422 58.1542 180.646C58.1542 180.79 58.1329 180.928 58.0902 181.062C58.0476 181.195 57.9889 181.318 57.9142 181.43C57.8396 181.542 57.7489 181.64 57.6422 181.726C57.5409 181.806 57.4289 181.867 57.3062 181.91V181.926C57.6262 182.011 57.8822 182.187 58.0742 182.454C58.2662 182.72 58.3622 183.04 58.3622 183.414C58.3622 183.659 58.3116 183.88 58.2102 184.078C58.1142 184.275 57.9836 184.446 57.8182 184.59C57.6582 184.728 57.4689 184.835 57.2502 184.91C57.0369 184.984 56.8102 185.022 56.5702 185.022C56.3302 185.022 56.1009 184.984 55.8822 184.91C55.6689 184.835 55.4796 184.728 55.3142 184.59C55.1542 184.446 55.0236 184.275 54.9222 184.078C54.8262 183.88 54.7782 183.659 54.7782 183.414C54.7782 183.04 54.8742 182.72 55.0662 182.454C55.2582 182.187 55.5142 182.011 55.8342 181.926V181.91ZM62.2636 179.79L59.9836 184.926H59.3356L61.6636 179.79H58.9036V179.262H62.2636V179.79ZM66.5809 184.926H62.9809V184.262L65.2369 181.966C65.3222 181.88 65.4075 181.79 65.4929 181.694C65.5782 181.598 65.6555 181.496 65.7249 181.39C65.7942 181.283 65.8502 181.171 65.8929 181.054C65.9355 180.936 65.9569 180.814 65.9569 180.686C65.9569 180.531 65.9275 180.392 65.8689 180.27C65.8155 180.147 65.7382 180.043 65.6369 179.958C65.5355 179.872 65.4182 179.808 65.2849 179.766C65.1515 179.718 65.0102 179.694 64.8609 179.694C64.5729 179.694 64.3275 179.774 64.1249 179.934C63.9222 180.094 63.7915 180.31 63.7329 180.582L63.1249 180.518C63.2049 180.096 63.3969 179.766 63.7009 179.526C64.0102 179.286 64.3835 179.166 64.8209 179.166C65.0502 179.166 65.2662 179.198 65.4689 179.262C65.6769 179.32 65.8582 179.411 66.0129 179.534C66.1729 179.656 66.2982 179.811 66.3889 179.998C66.4849 180.179 66.5329 180.392 66.5329 180.638C66.5329 180.856 66.4982 181.056 66.4289 181.238C66.3649 181.419 66.2795 181.59 66.1729 181.75C66.0662 181.91 65.9435 182.062 65.8049 182.206C65.6715 182.35 65.5329 182.491 65.3889 182.63L63.6049 184.398H66.5809V184.926ZM70.0262 182.062C69.9355 181.923 69.8075 181.806 69.6422 181.71C69.4822 181.614 69.2982 181.566 69.0902 181.566C68.8715 181.56 68.6742 181.595 68.4982 181.67C68.3275 181.744 68.1809 181.848 68.0582 181.982C67.9355 182.115 67.8422 182.275 67.7782 182.462C67.7142 182.643 67.6822 182.84 67.6822 183.054C67.6822 183.267 67.7142 183.467 67.7782 183.654C67.8422 183.835 67.9355 183.992 68.0582 184.126C68.1809 184.259 68.3275 184.363 68.4982 184.438C68.6742 184.512 68.8715 184.547 69.0902 184.542C69.2982 184.542 69.4822 184.494 69.6422 184.398C69.8075 184.302 69.9355 184.184 70.0262 184.046L70.4582 184.374C70.2715 184.592 70.0609 184.755 69.8262 184.862C69.5915 184.963 69.3462 185.016 69.0902 185.022C68.7862 185.027 68.5115 184.982 68.2662 184.886C68.0209 184.784 67.8102 184.646 67.6342 184.47C67.4635 184.294 67.3329 184.086 67.2422 183.846C67.1515 183.6 67.1062 183.336 67.1062 183.054C67.1062 182.771 67.1515 182.51 67.2422 182.27C67.3329 182.024 67.4635 181.814 67.6342 181.638C67.8102 181.462 68.0209 181.326 68.2662 181.23C68.5115 181.128 68.7862 181.08 69.0902 181.086C69.3462 181.091 69.5915 181.147 69.8262 181.254C70.0609 181.355 70.2715 181.515 70.4582 181.734L70.0262 182.062ZM73.7496 182.766C73.7496 182.408 73.6429 182.12 73.4296 181.902C73.2162 181.678 72.9176 181.566 72.5336 181.566C72.3629 181.566 72.1976 181.6 72.0376 181.67C71.8776 181.734 71.7362 181.822 71.6136 181.934C71.4962 182.046 71.4002 182.174 71.3256 182.318C71.2562 182.462 71.2216 182.611 71.2216 182.766H73.7496ZM71.2056 183.198C71.2216 183.384 71.2669 183.56 71.3416 183.726C71.4162 183.891 71.5149 184.035 71.6376 184.158C71.7602 184.275 71.9016 184.368 72.0616 184.438C72.2216 184.507 72.3949 184.542 72.5816 184.542C72.8642 184.542 73.1069 184.478 73.3096 184.35C73.5176 184.216 73.6749 184.064 73.7816 183.894L74.1896 184.23C73.9656 184.512 73.7176 184.715 73.4456 184.838C73.1789 184.96 72.8909 185.022 72.5816 185.022C72.3042 185.022 72.0456 184.974 71.8056 184.878C71.5709 184.776 71.3682 184.638 71.1976 184.462C71.0269 184.286 70.8909 184.078 70.7896 183.838C70.6936 183.598 70.6456 183.336 70.6456 183.054C70.6456 182.771 70.6936 182.51 70.7896 182.27C70.8856 182.03 71.0189 181.822 71.1896 181.646C71.3602 181.47 71.5602 181.334 71.7896 181.238C72.0189 181.136 72.2669 181.086 72.5336 181.086C72.8162 181.086 73.0696 181.136 73.2936 181.238C73.5176 181.339 73.7042 181.475 73.8536 181.646C74.0082 181.811 74.1256 182.008 74.2056 182.238C74.2856 182.462 74.3256 182.702 74.3256 182.958V183.198H71.2056ZM75.3469 183.27C75.3469 183.451 75.3762 183.616 75.4349 183.766C75.4989 183.915 75.5869 184.046 75.6989 184.158C75.8109 184.264 75.9442 184.347 76.0989 184.406C76.2535 184.464 76.4242 184.494 76.6109 184.494C76.7975 184.494 76.9682 184.464 77.1229 184.406C77.2775 184.347 77.4109 184.264 77.5229 184.158C77.6349 184.046 77.7202 183.915 77.7789 183.766C77.8429 183.616 77.8749 183.451 77.8749 183.27C77.8749 183.088 77.8429 182.923 77.7789 182.774C77.7202 182.624 77.6349 182.496 77.5229 182.39C77.4109 182.283 77.2775 182.2 77.1229 182.142C76.9682 182.078 76.7975 182.046 76.6109 182.046C76.4242 182.046 76.2535 182.078 76.0989 182.142C75.9442 182.2 75.8109 182.283 75.6989 182.39C75.5869 182.496 75.4989 182.624 75.4349 182.774C75.3762 182.923 75.3469 183.088 75.3469 183.27ZM75.9229 181.694L75.9389 181.71C76.0295 181.646 76.1495 181.598 76.2989 181.566C76.4535 181.534 76.5949 181.518 76.7229 181.518C76.9682 181.518 77.1949 181.563 77.4029 181.654C77.6162 181.739 77.8002 181.859 77.9549 182.014C78.1095 182.168 78.2295 182.352 78.3149 182.566C78.4055 182.779 78.4509 183.014 78.4509 183.27C78.4509 183.531 78.4055 183.768 78.3149 183.982C78.2242 184.195 78.0962 184.379 77.9309 184.534C77.7655 184.688 77.5709 184.808 77.3469 184.894C77.1229 184.979 76.8775 185.022 76.6109 185.022C76.3442 185.022 76.0989 184.979 75.8749 184.894C75.6509 184.808 75.4562 184.688 75.2909 184.534C75.1255 184.379 74.9975 184.195 74.9069 183.982C74.8162 183.768 74.7709 183.531 74.7709 183.27C74.7709 182.955 74.8162 182.68 74.9069 182.446C75.0029 182.211 75.1202 181.979 75.2589 181.75L76.7869 179.262H77.4669L75.9229 181.694ZM81.2642 179.838H81.2482L79.2962 183.054H81.2642V179.838ZM81.8402 183.054H82.6562V183.582H81.8402V184.926H81.2642V183.582H78.8162V182.926L81.1042 179.262H81.8402V183.054ZM86.6215 184.926H83.0215V184.262L85.2775 181.966C85.3628 181.88 85.4482 181.79 85.5335 181.694C85.6188 181.598 85.6962 181.496 85.7655 181.39C85.8348 181.283 85.8908 181.171 85.9335 181.054C85.9762 180.936 85.9975 180.814 85.9975 180.686C85.9975 180.531 85.9682 180.392 85.9095 180.27C85.8562 180.147 85.7788 180.043 85.6775 179.958C85.5762 179.872 85.4588 179.808 85.3255 179.766C85.1922 179.718 85.0508 179.694 84.9015 179.694C84.6135 179.694 84.3682 179.774 84.1655 179.934C83.9628 180.094 83.8322 180.31 83.7735 180.582L83.1655 180.518C83.2455 180.096 83.4375 179.766 83.7415 179.526C84.0508 179.286 84.4242 179.166 84.8615 179.166C85.0908 179.166 85.3068 179.198 85.5095 179.262C85.7175 179.32 85.8988 179.411 86.0535 179.534C86.2135 179.656 86.3388 179.811 86.4295 179.998C86.5255 180.179 86.5735 180.392 86.5735 180.638C86.5735 180.856 86.5388 181.056 86.4695 181.238C86.4055 181.419 86.3202 181.59 86.2135 181.75C86.1068 181.91 85.9842 182.062 85.8455 182.206C85.7122 182.35 85.5735 182.491 85.4295 182.63L83.6455 184.398H86.6215V184.926ZM89.5468 184.926H88.9708V179.982L87.9548 180.878L87.5948 180.446L89.0348 179.262H89.5468V184.926ZM93.6721 184.926H93.0961V179.982L92.0801 180.878L91.7201 180.446L93.1601 179.262H93.6721V184.926ZM98.9974 184.926H95.3974V184.262L97.6534 181.966C97.7388 181.88 97.8241 181.79 97.9094 181.694C97.9948 181.598 98.0721 181.496 98.1414 181.39C98.2108 181.283 98.2668 181.171 98.3094 181.054C98.3521 180.936 98.3734 180.814 98.3734 180.686C98.3734 180.531 98.3441 180.392 98.2854 180.27C98.2321 180.147 98.1548 180.043 98.0534 179.958C97.9521 179.872 97.8348 179.808 97.7014 179.766C97.5681 179.718 97.4268 179.694 97.2774 179.694C96.9894 179.694 96.7441 179.774 96.5414 179.934C96.3388 180.094 96.2081 180.31 96.1494 180.582L95.5414 180.518C95.6214 180.096 95.8134 179.766 96.1174 179.526C96.4268 179.286 96.8001 179.166 97.2374 179.166C97.4668 179.166 97.6828 179.198 97.8854 179.262C98.0934 179.32 98.2748 179.411 98.4294 179.534C98.5894 179.656 98.7148 179.811 98.8054 179.998C98.9014 180.179 98.9494 180.392 98.9494 180.638C98.9494 180.856 98.9148 181.056 98.8454 181.238C98.7814 181.419 98.6961 181.59 98.5894 181.75C98.4828 181.91 98.3601 182.062 98.2214 182.206C98.0881 182.35 97.9494 182.491 97.8054 182.63L96.0214 184.398H98.9974V184.926ZM103.123 184.926H99.5227V184.262L101.779 181.966C101.864 181.88 101.949 181.79 102.035 181.694C102.12 181.598 102.197 181.496 102.267 181.39C102.336 181.283 102.392 181.171 102.435 181.054C102.477 180.936 102.499 180.814 102.499 180.686C102.499 180.531 102.469 180.392 102.411 180.27C102.357 180.147 102.28 180.043 102.179 179.958C102.077 179.872 101.96 179.808 101.827 179.766C101.693 179.718 101.552 179.694 101.403 179.694C101.115 179.694 100.869 179.774 100.667 179.934C100.464 180.094 100.333 180.31 100.275 180.582L99.6667 180.518C99.7467 180.096 99.9387 179.766 100.243 179.526C100.552 179.286 100.925 179.166 101.363 179.166C101.592 179.166 101.808 179.198 102.011 179.262C102.219 179.32 102.4 179.411 102.555 179.534C102.715 179.656 102.84 179.811 102.931 179.998C103.027 180.179 103.075 180.392 103.075 180.638C103.075 180.856 103.04 181.056 102.971 181.238C102.907 181.419 102.821 181.59 102.715 181.75C102.608 181.91 102.485 182.062 102.347 182.206C102.213 182.35 102.075 182.491 101.931 182.63L100.147 184.398H103.123V184.926ZM104.608 184.398H105.712C105.92 184.398 106.115 184.376 106.296 184.334C106.477 184.291 106.635 184.227 106.768 184.142C106.901 184.051 107.005 183.939 107.08 183.806C107.16 183.672 107.2 183.512 107.2 183.326C107.2 182.952 107.08 182.675 106.84 182.494C106.6 182.312 106.248 182.222 105.784 182.222H104.608V184.398ZM104.608 181.742H105.768C105.907 181.742 106.043 181.726 106.176 181.694C106.315 181.656 106.437 181.598 106.544 181.518C106.656 181.438 106.747 181.336 106.816 181.214C106.885 181.086 106.92 180.931 106.92 180.75C106.92 180.691 106.907 180.608 106.88 180.502C106.859 180.395 106.805 180.288 106.72 180.182C106.64 180.075 106.52 179.984 106.36 179.91C106.2 179.83 105.984 179.79 105.712 179.79H104.608V181.742ZM104.032 179.262H105.72C105.955 179.262 106.181 179.286 106.4 179.334C106.619 179.382 106.813 179.462 106.984 179.574C107.155 179.686 107.291 179.832 107.392 180.014C107.493 180.195 107.544 180.419 107.544 180.686C107.544 180.995 107.456 181.262 107.28 181.486C107.109 181.704 106.864 181.851 106.544 181.926V181.942C106.944 181.974 107.256 182.115 107.48 182.366C107.709 182.611 107.824 182.942 107.824 183.358C107.824 183.448 107.8 183.582 107.752 183.758C107.709 183.934 107.616 184.11 107.472 184.286C107.328 184.456 107.12 184.606 106.848 184.734C106.576 184.862 106.213 184.926 105.76 184.926H104.032V179.262ZM110.735 179.838H110.719L108.767 183.054H110.735V179.838ZM111.311 183.054H112.127V183.582H111.311V184.926H110.735V183.582H108.287V182.926L110.575 179.262H111.311V183.054ZM114.892 184.926H114.316V179.982L113.3 180.878L112.94 180.446L114.38 179.262H114.892V184.926ZM118.938 183.062C118.804 183.062 118.636 183.07 118.434 183.086C118.236 183.096 118.044 183.128 117.858 183.182C117.676 183.23 117.519 183.307 117.386 183.414C117.258 183.52 117.194 183.667 117.194 183.854C117.194 183.976 117.218 184.083 117.266 184.174C117.319 184.259 117.388 184.331 117.474 184.39C117.559 184.443 117.652 184.483 117.754 184.51C117.86 184.531 117.967 184.542 118.074 184.542C118.266 184.542 118.431 184.51 118.57 184.446C118.714 184.382 118.834 184.296 118.93 184.19C119.026 184.078 119.095 183.95 119.138 183.806C119.186 183.656 119.21 183.499 119.21 183.334V183.062H118.938ZM119.21 182.63V182.534C119.21 181.888 118.89 181.566 118.25 181.566C117.812 181.566 117.431 181.712 117.106 182.006L116.786 181.63C117.138 181.267 117.666 181.086 118.37 181.086C118.551 181.086 118.724 181.112 118.89 181.166C119.06 181.219 119.207 181.302 119.33 181.414C119.452 181.52 119.551 181.656 119.626 181.822C119.7 181.987 119.738 182.184 119.738 182.414V184.086C119.738 184.23 119.743 184.382 119.754 184.542C119.77 184.696 119.786 184.824 119.802 184.926H119.29C119.274 184.835 119.26 184.736 119.25 184.63C119.244 184.523 119.242 184.419 119.242 184.318H119.226C119.071 184.568 118.887 184.75 118.674 184.862C118.466 184.968 118.21 185.022 117.906 185.022C117.74 185.022 117.58 184.998 117.426 184.95C117.271 184.907 117.132 184.84 117.01 184.75C116.892 184.654 116.796 184.539 116.722 184.406C116.652 184.267 116.618 184.107 116.618 183.926C116.618 183.622 116.695 183.384 116.85 183.214C117.01 183.038 117.207 182.907 117.442 182.822C117.682 182.736 117.935 182.683 118.202 182.662C118.474 182.64 118.722 182.63 118.946 182.63H119.21ZM124.046 184.926H120.446V184.262L122.702 181.966C122.788 181.88 122.873 181.79 122.958 181.694C123.044 181.598 123.121 181.496 123.19 181.39C123.26 181.283 123.316 181.171 123.358 181.054C123.401 180.936 123.422 180.814 123.422 180.686C123.422 180.531 123.393 180.392 123.334 180.27C123.281 180.147 123.204 180.043 123.102 179.958C123.001 179.872 122.884 179.808 122.75 179.766C122.617 179.718 122.476 179.694 122.326 179.694C122.038 179.694 121.793 179.774 121.59 179.934C121.388 180.094 121.257 180.31 121.198 180.582L120.59 180.518C120.67 180.096 120.862 179.766 121.166 179.526C121.476 179.286 121.849 179.166 122.286 179.166C122.516 179.166 122.732 179.198 122.934 179.262C123.142 179.32 123.324 179.411 123.478 179.534C123.638 179.656 123.764 179.811 123.854 179.998C123.95 180.179 123.998 180.392 123.998 180.638C123.998 180.856 123.964 181.056 123.894 181.238C123.83 181.419 123.745 181.59 123.638 181.75C123.532 181.91 123.409 182.062 123.27 182.206C123.137 182.35 122.998 182.491 122.854 182.63L121.07 184.398H124.046V184.926ZM127.676 180.918C127.676 180.736 127.644 180.571 127.58 180.422C127.521 180.272 127.436 180.144 127.324 180.038C127.212 179.931 127.078 179.848 126.924 179.79C126.769 179.726 126.598 179.694 126.412 179.694C126.225 179.694 126.054 179.726 125.9 179.79C125.745 179.848 125.612 179.931 125.5 180.038C125.388 180.144 125.3 180.272 125.236 180.422C125.177 180.571 125.148 180.736 125.148 180.918C125.148 181.099 125.177 181.264 125.236 181.414C125.3 181.563 125.388 181.694 125.5 181.806C125.612 181.912 125.745 181.995 125.9 182.054C126.054 182.112 126.225 182.142 126.412 182.142C126.598 182.142 126.769 182.112 126.924 182.054C127.078 181.995 127.212 181.912 127.324 181.806C127.436 181.694 127.521 181.563 127.58 181.414C127.644 181.264 127.676 181.099 127.676 180.918ZM127.1 182.494L127.084 182.478C126.993 182.542 126.87 182.59 126.716 182.622C126.566 182.654 126.428 182.67 126.299 182.67C126.054 182.67 125.825 182.627 125.612 182.542C125.404 182.451 125.222 182.328 125.068 182.174C124.913 182.019 124.79 181.835 124.7 181.622C124.614 181.408 124.572 181.174 124.572 180.918C124.572 180.656 124.617 180.419 124.708 180.206C124.798 179.992 124.926 179.808 125.092 179.654C125.257 179.499 125.452 179.379 125.676 179.294C125.9 179.208 126.145 179.166 126.412 179.166C126.678 179.166 126.924 179.208 127.148 179.294C127.372 179.379 127.566 179.499 127.732 179.654C127.897 179.808 128.025 179.992 128.116 180.206C128.206 180.419 128.252 180.656 128.252 180.918C128.252 181.232 128.204 181.507 128.108 181.742C128.017 181.976 127.902 182.208 127.764 182.438L126.236 184.926H125.556L127.1 182.494ZM130.537 179.694C130.227 179.694 129.982 179.776 129.801 179.942C129.625 180.107 129.491 180.312 129.401 180.558C129.31 180.803 129.251 181.064 129.225 181.342C129.203 181.619 129.193 181.87 129.193 182.094C129.193 182.318 129.203 182.568 129.225 182.846C129.251 183.123 129.31 183.384 129.401 183.63C129.491 183.875 129.625 184.08 129.801 184.246C129.982 184.411 130.227 184.494 130.537 184.494C130.846 184.494 131.089 184.411 131.265 184.246C131.446 184.08 131.582 183.875 131.673 183.63C131.763 183.384 131.819 183.123 131.841 182.846C131.867 182.568 131.881 182.318 131.881 182.094C131.881 181.87 131.867 181.619 131.841 181.342C131.819 181.064 131.763 180.803 131.673 180.558C131.582 180.312 131.446 180.107 131.265 179.942C131.089 179.776 130.846 179.694 130.537 179.694ZM130.537 179.166C130.942 179.166 131.27 179.259 131.521 179.446C131.771 179.632 131.966 179.87 132.105 180.158C132.243 180.446 132.337 180.763 132.385 181.11C132.433 181.451 132.457 181.779 132.457 182.094C132.457 182.408 132.433 182.739 132.385 183.086C132.337 183.427 132.243 183.742 132.105 184.03C131.966 184.318 131.771 184.555 131.521 184.742C131.27 184.928 130.942 185.022 130.537 185.022C130.131 185.022 129.803 184.928 129.553 184.742C129.302 184.555 129.107 184.318 128.969 184.03C128.83 183.742 128.737 183.427 128.689 183.086C128.641 182.739 128.617 182.408 128.617 182.094C128.617 181.779 128.641 181.451 128.689 181.11C128.737 180.763 128.83 180.446 128.969 180.158C129.107 179.87 129.302 179.632 129.553 179.446C129.803 179.259 130.131 179.166 130.537 179.166ZM135.142 183.062C135.009 183.062 134.841 183.07 134.638 183.086C134.441 183.096 134.249 183.128 134.062 183.182C133.881 183.23 133.723 183.307 133.59 183.414C133.462 183.52 133.398 183.667 133.398 183.854C133.398 183.976 133.422 184.083 133.47 184.174C133.523 184.259 133.593 184.331 133.678 184.39C133.763 184.443 133.857 184.483 133.958 184.51C134.065 184.531 134.171 184.542 134.278 184.542C134.47 184.542 134.635 184.51 134.774 184.446C134.918 184.382 135.038 184.296 135.134 184.19C135.23 184.078 135.299 183.95 135.342 183.806C135.39 183.656 135.414 183.499 135.414 183.334V183.062H135.142ZM135.414 182.63V182.534C135.414 181.888 135.094 181.566 134.454 181.566C134.017 181.566 133.635 181.712 133.31 182.006L132.99 181.63C133.342 181.267 133.87 181.086 134.574 181.086C134.755 181.086 134.929 181.112 135.094 181.166C135.265 181.219 135.411 181.302 135.534 181.414C135.657 181.52 135.755 181.656 135.83 181.822C135.905 181.987 135.942 182.184 135.942 182.414V184.086C135.942 184.23 135.947 184.382 135.958 184.542C135.974 184.696 135.99 184.824 136.006 184.926H135.494C135.478 184.835 135.465 184.736 135.454 184.63C135.449 184.523 135.446 184.419 135.446 184.318H135.43C135.275 184.568 135.091 184.75 134.878 184.862C134.67 184.968 134.414 185.022 134.11 185.022C133.945 185.022 133.785 184.998 133.63 184.95C133.475 184.907 133.337 184.84 133.214 184.75C133.097 184.654 133.001 184.539 132.926 184.406C132.857 184.267 132.822 184.107 132.822 183.926C132.822 183.622 132.899 183.384 133.054 183.214C133.214 183.038 133.411 182.907 133.646 182.822C133.886 182.736 134.139 182.683 134.406 182.662C134.678 182.64 134.926 182.63 135.15 182.63H135.414ZM141.699 184.03C141.603 184.174 141.483 184.31 141.339 184.438C141.2 184.566 141.04 184.678 140.859 184.774C140.677 184.864 140.48 184.936 140.267 184.99C140.059 185.043 139.837 185.07 139.603 185.07C139.181 185.07 138.789 184.995 138.427 184.846C138.069 184.696 137.757 184.491 137.491 184.23C137.229 183.963 137.024 183.648 136.875 183.286C136.725 182.923 136.651 182.526 136.651 182.094C136.651 181.662 136.725 181.264 136.875 180.902C137.024 180.539 137.229 180.227 137.491 179.966C137.757 179.699 138.069 179.491 138.427 179.342C138.789 179.192 139.181 179.118 139.603 179.118C139.955 179.118 140.307 179.187 140.659 179.326C141.011 179.464 141.312 179.694 141.563 180.014L141.059 180.39C141 180.299 140.92 180.208 140.819 180.118C140.717 180.027 140.6 179.947 140.467 179.878C140.339 179.808 140.2 179.752 140.051 179.71C139.901 179.667 139.752 179.646 139.603 179.646C139.24 179.646 138.915 179.712 138.627 179.846C138.339 179.979 138.093 180.158 137.891 180.382C137.693 180.606 137.541 180.867 137.435 181.166C137.328 181.459 137.275 181.768 137.275 182.094C137.275 182.419 137.328 182.731 137.435 183.03C137.541 183.323 137.693 183.582 137.891 183.806C138.093 184.03 138.339 184.208 138.627 184.342C138.915 184.475 139.24 184.542 139.603 184.542C139.752 184.542 139.899 184.528 140.043 184.502C140.192 184.475 140.336 184.43 140.475 184.366C140.619 184.302 140.752 184.216 140.875 184.11C141.003 183.998 141.12 183.859 141.227 183.694L141.699 184.03ZM142.475 183.054C142.475 183.262 142.507 183.456 142.571 183.638C142.641 183.819 142.737 183.976 142.859 184.11C142.982 184.243 143.129 184.35 143.299 184.43C143.475 184.504 143.673 184.542 143.891 184.542C144.105 184.542 144.302 184.504 144.483 184.43C144.67 184.35 144.83 184.243 144.963 184.11C145.097 183.976 145.201 183.819 145.275 183.638C145.35 183.456 145.387 183.262 145.387 183.054C145.387 182.846 145.35 182.651 145.275 182.47C145.201 182.288 145.097 182.131 144.963 181.998C144.83 181.864 144.67 181.76 144.483 181.686C144.302 181.606 144.105 181.566 143.891 181.566C143.673 181.566 143.475 181.606 143.299 181.686C143.129 181.76 142.982 181.864 142.859 181.998C142.737 182.131 142.641 182.288 142.571 182.47C142.507 182.651 142.475 182.846 142.475 183.054ZM145.891 184.926H145.363V184.302H145.347C145.262 184.43 145.161 184.539 145.043 184.63C144.926 184.72 144.803 184.795 144.675 184.854C144.547 184.912 144.414 184.955 144.275 184.982C144.142 185.008 144.014 185.022 143.891 185.022C143.598 185.022 143.329 184.974 143.083 184.878C142.843 184.776 142.635 184.638 142.459 184.462C142.283 184.286 142.145 184.078 142.043 183.838C141.947 183.598 141.899 183.336 141.899 183.054C141.899 182.771 141.947 182.51 142.043 182.27C142.145 182.03 142.283 181.822 142.459 181.646C142.635 181.47 142.843 181.334 143.083 181.238C143.329 181.136 143.598 181.086 143.891 181.086C144.014 181.086 144.142 181.099 144.275 181.126C144.414 181.152 144.547 181.195 144.675 181.254C144.803 181.312 144.926 181.387 145.043 181.478C145.161 181.568 145.262 181.678 145.347 181.806H145.363V178.878H145.891V184.926ZM147.414 184.398H148.534C148.966 184.398 149.339 184.334 149.654 184.206C149.974 184.072 150.238 183.899 150.446 183.686C150.659 183.467 150.817 183.222 150.918 182.95C151.019 182.672 151.07 182.387 151.07 182.094C151.07 181.8 151.019 181.518 150.918 181.246C150.817 180.968 150.659 180.723 150.446 180.51C150.238 180.291 149.974 180.118 149.654 179.99C149.339 179.856 148.966 179.79 148.534 179.79H147.414V184.398ZM146.838 179.262H148.718C149.07 179.262 149.422 179.32 149.774 179.438C150.131 179.555 150.451 179.734 150.734 179.974C151.022 180.208 151.254 180.504 151.43 180.862C151.606 181.214 151.694 181.624 151.694 182.094C151.694 182.568 151.606 182.982 151.43 183.334C151.254 183.686 151.022 183.982 150.734 184.222C150.451 184.456 150.131 184.632 149.774 184.75C149.422 184.867 149.07 184.926 148.718 184.926H146.838V179.262ZM155.744 184.926H152.144V184.262L154.4 181.966C154.485 181.88 154.57 181.79 154.656 181.694C154.741 181.598 154.818 181.496 154.888 181.39C154.957 181.283 155.013 181.171 155.056 181.054C155.098 180.936 155.12 180.814 155.12 180.686C155.12 180.531 155.09 180.392 155.032 180.27C154.978 180.147 154.901 180.043 154.8 179.958C154.698 179.872 154.581 179.808 154.448 179.766C154.314 179.718 154.173 179.694 154.024 179.694C153.736 179.694 153.49 179.774 153.288 179.934C153.085 180.094 152.954 180.31 152.896 180.582L152.288 180.518C152.368 180.096 152.56 179.766 152.864 179.526C153.173 179.286 153.546 179.166 153.984 179.166C154.213 179.166 154.429 179.198 154.632 179.262C154.84 179.32 155.021 179.411 155.176 179.534C155.336 179.656 155.461 179.811 155.552 179.998C155.648 180.179 155.696 180.392 155.696 180.638C155.696 180.856 155.661 181.056 155.592 181.238C155.528 181.419 155.442 181.59 155.336 181.75C155.229 181.91 155.106 182.062 154.968 182.206C154.834 182.35 154.696 182.491 154.552 182.63L152.768 184.398H155.744V184.926ZM159.869 184.926H156.269V184.262L158.525 181.966C158.61 181.88 158.696 181.79 158.781 181.694C158.866 181.598 158.944 181.496 159.013 181.39C159.082 181.283 159.138 181.171 159.181 181.054C159.224 180.936 159.245 180.814 159.245 180.686C159.245 180.531 159.216 180.392 159.157 180.27C159.104 180.147 159.026 180.043 158.925 179.958C158.824 179.872 158.706 179.808 158.573 179.766C158.44 179.718 158.298 179.694 158.149 179.694C157.861 179.694 157.616 179.774 157.413 179.934C157.21 180.094 157.08 180.31 157.021 180.582L156.413 180.518C156.493 180.096 156.685 179.766 156.989 179.526C157.298 179.286 157.672 179.166 158.109 179.166C158.338 179.166 158.554 179.198 158.757 179.262C158.965 179.32 159.146 179.411 159.301 179.534C159.461 179.656 159.586 179.811 159.677 179.998C159.773 180.179 159.821 180.392 159.821 180.638C159.821 180.856 159.786 181.056 159.717 181.238C159.653 181.419 159.568 181.59 159.461 181.75C159.354 181.91 159.232 182.062 159.093 182.206C158.96 182.35 158.821 182.491 158.677 182.63L156.893 184.398H159.869V184.926ZM162.714 183.062C162.581 183.062 162.413 183.07 162.21 183.086C162.013 183.096 161.821 183.128 161.634 183.182C161.453 183.23 161.296 183.307 161.162 183.414C161.034 183.52 160.97 183.667 160.97 183.854C160.97 183.976 160.994 184.083 161.042 184.174C161.096 184.259 161.165 184.331 161.25 184.39C161.336 184.443 161.429 184.483 161.53 184.51C161.637 184.531 161.744 184.542 161.85 184.542C162.042 184.542 162.208 184.51 162.346 184.446C162.49 184.382 162.61 184.296 162.706 184.19C162.802 184.078 162.872 183.95 162.914 183.806C162.962 183.656 162.986 183.499 162.986 183.334V183.062H162.714ZM162.986 182.63V182.534C162.986 181.888 162.666 181.566 162.026 181.566C161.589 181.566 161.208 181.712 160.882 182.006L160.562 181.63C160.914 181.267 161.442 181.086 162.146 181.086C162.328 181.086 162.501 181.112 162.666 181.166C162.837 181.219 162.984 181.302 163.106 181.414C163.229 181.52 163.328 181.656 163.402 181.822C163.477 181.987 163.514 182.184 163.514 182.414V184.086C163.514 184.23 163.52 184.382 163.53 184.542C163.546 184.696 163.562 184.824 163.578 184.926H163.066C163.05 184.835 163.037 184.736 163.026 184.63C163.021 184.523 163.018 184.419 163.018 184.318H163.002C162.848 184.568 162.664 184.75 162.45 184.862C162.242 184.968 161.986 185.022 161.682 185.022C161.517 185.022 161.357 184.998 161.202 184.95C161.048 184.907 160.909 184.84 160.786 184.75C160.669 184.654 160.573 184.539 160.498 184.406C160.429 184.267 160.394 184.107 160.394 183.926C160.394 183.622 160.472 183.384 160.626 183.214C160.786 183.038 160.984 182.907 161.218 182.822C161.458 182.736 161.712 182.683 161.978 182.662C162.25 182.64 162.498 182.63 162.722 182.63H162.986ZM167.559 179.79H165.239L165.207 181.494C165.329 181.446 165.455 181.411 165.583 181.39C165.711 181.368 165.839 181.358 165.967 181.358C166.233 181.358 166.476 181.403 166.695 181.494C166.913 181.584 167.1 181.712 167.255 181.878C167.415 182.038 167.537 182.23 167.623 182.454C167.713 182.672 167.759 182.912 167.759 183.174C167.759 183.446 167.711 183.696 167.615 183.926C167.519 184.15 167.385 184.344 167.215 184.51C167.044 184.67 166.841 184.795 166.607 184.886C166.377 184.976 166.127 185.022 165.855 185.022C165.497 185.022 165.175 184.936 164.887 184.766C164.599 184.595 164.377 184.344 164.223 184.014L164.791 183.766C164.897 183.99 165.047 184.168 165.239 184.302C165.431 184.43 165.652 184.494 165.903 184.494C166.084 184.494 166.252 184.462 166.407 184.398C166.561 184.328 166.695 184.238 166.807 184.126C166.924 184.014 167.015 183.88 167.079 183.726C167.148 183.571 167.183 183.406 167.183 183.23C167.183 183.032 167.148 182.851 167.079 182.686C167.009 182.52 166.913 182.379 166.791 182.262C166.668 182.139 166.521 182.046 166.351 181.982C166.18 181.918 165.993 181.886 165.791 181.886C165.588 181.886 165.385 181.915 165.183 181.974C164.985 182.027 164.796 182.102 164.615 182.198L164.671 179.262H167.559V179.79ZM171.452 182.766C171.452 182.408 171.345 182.12 171.132 181.902C170.919 181.678 170.62 181.566 170.236 181.566C170.065 181.566 169.9 181.6 169.74 181.67C169.58 181.734 169.439 181.822 169.316 181.934C169.199 182.046 169.103 182.174 169.028 182.318C168.959 182.462 168.924 182.611 168.924 182.766H171.452ZM168.908 183.198C168.924 183.384 168.969 183.56 169.044 183.726C169.119 183.891 169.217 184.035 169.34 184.158C169.463 184.275 169.604 184.368 169.764 184.438C169.924 184.507 170.097 184.542 170.284 184.542C170.567 184.542 170.809 184.478 171.012 184.35C171.22 184.216 171.377 184.064 171.484 183.894L171.892 184.23C171.668 184.512 171.42 184.715 171.148 184.838C170.881 184.96 170.593 185.022 170.284 185.022C170.007 185.022 169.748 184.974 169.508 184.878C169.273 184.776 169.071 184.638 168.9 184.462C168.729 184.286 168.593 184.078 168.492 183.838C168.396 183.598 168.348 183.336 168.348 183.054C168.348 182.771 168.396 182.51 168.492 182.27C168.588 182.03 168.721 181.822 168.892 181.646C169.063 181.47 169.263 181.334 169.492 181.238C169.721 181.136 169.969 181.086 170.236 181.086C170.519 181.086 170.772 181.136 170.996 181.238C171.22 181.339 171.407 181.475 171.556 181.646C171.711 181.811 171.828 182.008 171.908 182.238C171.988 182.462 172.028 182.702 172.028 182.958V183.198H168.908ZM173.353 184.398H174.473C174.905 184.398 175.279 184.334 175.593 184.206C175.913 184.072 176.177 183.899 176.385 183.686C176.599 183.467 176.756 183.222 176.857 182.95C176.959 182.672 177.009 182.387 177.009 182.094C177.009 181.8 176.959 181.518 176.857 181.246C176.756 180.968 176.599 180.723 176.385 180.51C176.177 180.291 175.913 180.118 175.593 179.99C175.279 179.856 174.905 179.79 174.473 179.79H173.353V184.398ZM172.777 179.262H174.657C175.009 179.262 175.361 179.32 175.713 179.438C176.071 179.555 176.391 179.734 176.673 179.974C176.961 180.208 177.193 180.504 177.369 180.862C177.545 181.214 177.633 181.624 177.633 182.094C177.633 182.568 177.545 182.982 177.369 183.334C177.193 183.686 176.961 183.982 176.673 184.222C176.391 184.456 176.071 184.632 175.713 184.75C175.361 184.867 175.009 184.926 174.657 184.926H172.777V179.262ZM181.187 180.918C181.187 180.736 181.155 180.571 181.091 180.422C181.032 180.272 180.947 180.144 180.835 180.038C180.723 179.931 180.59 179.848 180.435 179.79C180.28 179.726 180.11 179.694 179.923 179.694C179.736 179.694 179.566 179.726 179.411 179.79C179.256 179.848 179.123 179.931 179.011 180.038C178.899 180.144 178.811 180.272 178.747 180.422C178.688 180.571 178.659 180.736 178.659 180.918C178.659 181.099 178.688 181.264 178.747 181.414C178.811 181.563 178.899 181.694 179.011 181.806C179.123 181.912 179.256 181.995 179.411 182.054C179.566 182.112 179.736 182.142 179.923 182.142C180.11 182.142 180.28 182.112 180.435 182.054C180.59 181.995 180.723 181.912 180.835 181.806C180.947 181.694 181.032 181.563 181.091 181.414C181.155 181.264 181.187 181.099 181.187 180.918ZM180.611 182.494L180.595 182.478C180.504 182.542 180.382 182.59 180.227 182.622C180.078 182.654 179.939 182.67 179.811 182.67C179.566 182.67 179.336 182.627 179.123 182.542C178.915 182.451 178.734 182.328 178.579 182.174C178.424 182.019 178.302 181.835 178.211 181.622C178.126 181.408 178.083 181.174 178.083 180.918C178.083 180.656 178.128 180.419 178.219 180.206C178.31 179.992 178.438 179.808 178.603 179.654C178.768 179.499 178.963 179.379 179.187 179.294C179.411 179.208 179.656 179.166 179.923 179.166C180.19 179.166 180.435 179.208 180.659 179.294C180.883 179.379 181.078 179.499 181.243 179.654C181.408 179.808 181.536 179.992 181.627 180.206C181.718 180.419 181.763 180.656 181.763 180.918C181.763 181.232 181.715 181.507 181.619 181.742C181.528 181.976 181.414 182.208 181.275 182.438L179.747 184.926H179.067L180.611 182.494ZM183.456 181.694H183.752C183.918 181.694 184.075 181.675 184.224 181.638C184.379 181.6 184.512 181.542 184.624 181.462C184.736 181.376 184.824 181.267 184.888 181.134C184.958 181 184.992 180.84 184.992 180.654C184.992 180.35 184.899 180.115 184.712 179.95C184.531 179.779 184.275 179.694 183.944 179.694C183.704 179.694 183.494 179.747 183.312 179.854C183.131 179.96 182.982 180.115 182.864 180.318L182.36 180.062C182.531 179.758 182.747 179.534 183.008 179.39C183.275 179.24 183.582 179.166 183.928 179.166C184.152 179.166 184.363 179.198 184.56 179.262C184.758 179.326 184.931 179.422 185.08 179.55C185.23 179.672 185.347 179.827 185.432 180.014C185.523 180.195 185.568 180.403 185.568 180.638C185.568 180.792 185.542 180.939 185.488 181.078C185.44 181.216 185.371 181.342 185.28 181.454C185.195 181.566 185.094 181.664 184.976 181.75C184.859 181.83 184.736 181.891 184.608 181.934L184.632 181.95C184.792 181.982 184.939 182.043 185.072 182.134C185.206 182.219 185.32 182.326 185.416 182.454C185.512 182.582 185.587 182.726 185.64 182.886C185.694 183.046 185.72 183.214 185.72 183.39C185.72 183.651 185.672 183.883 185.576 184.086C185.48 184.288 185.35 184.459 185.184 184.598C185.019 184.736 184.827 184.843 184.608 184.918C184.39 184.987 184.158 185.022 183.912 185.022C183.496 185.022 183.134 184.931 182.824 184.75C182.515 184.568 182.283 184.278 182.128 183.878L182.736 183.694C182.832 183.966 182.974 184.168 183.16 184.302C183.352 184.43 183.619 184.494 183.96 184.494C184.12 184.494 184.272 184.467 184.416 184.414C184.56 184.36 184.686 184.286 184.792 184.19C184.904 184.088 184.99 183.968 185.048 183.83C185.112 183.691 185.144 183.539 185.144 183.374C185.144 183.16 185.104 182.982 185.024 182.838C184.944 182.688 184.838 182.568 184.704 182.478C184.571 182.387 184.416 182.323 184.24 182.286C184.07 182.243 183.891 182.222 183.704 182.222H183.456V181.694ZM188.734 184.926H188.158V179.982L187.142 180.878L186.782 180.446L188.222 179.262H188.734V184.926ZM194.067 183.054C194.067 182.846 194.032 182.651 193.963 182.47C193.899 182.288 193.806 182.131 193.683 181.998C193.56 181.864 193.411 181.76 193.235 181.686C193.064 181.606 192.87 181.566 192.651 181.566C192.432 181.566 192.232 181.606 192.051 181.686C191.87 181.76 191.712 181.864 191.579 181.998C191.446 182.131 191.342 182.288 191.267 182.47C191.192 182.651 191.155 182.846 191.155 183.054C191.155 183.262 191.192 183.456 191.267 183.638C191.342 183.819 191.446 183.976 191.579 184.11C191.712 184.243 191.87 184.35 192.051 184.43C192.232 184.504 192.432 184.542 192.651 184.542C192.87 184.542 193.064 184.504 193.235 184.43C193.411 184.35 193.56 184.243 193.683 184.11C193.806 183.976 193.899 183.819 193.963 183.638C194.032 183.456 194.067 183.262 194.067 183.054ZM190.651 178.878H191.179V181.806H191.195C191.28 181.678 191.382 181.568 191.499 181.478C191.616 181.387 191.739 181.312 191.867 181.254C191.995 181.195 192.126 181.152 192.259 181.126C192.398 181.099 192.528 181.086 192.651 181.086C192.944 181.086 193.211 181.136 193.451 181.238C193.696 181.334 193.907 181.47 194.083 181.646C194.259 181.822 194.395 182.03 194.491 182.27C194.592 182.51 194.643 182.771 194.643 183.054C194.643 183.336 194.592 183.598 194.491 183.838C194.395 184.078 194.259 184.286 194.083 184.462C193.907 184.638 193.696 184.776 193.451 184.878C193.211 184.974 192.944 185.022 192.651 185.022C192.528 185.022 192.398 185.008 192.259 184.982C192.126 184.955 191.995 184.912 191.867 184.854C191.739 184.795 191.616 184.72 191.499 184.63C191.382 184.539 191.28 184.43 191.195 184.302H191.179V184.926H190.651V178.878ZM195.542 183.054C195.542 183.262 195.574 183.456 195.638 183.638C195.707 183.819 195.803 183.976 195.926 184.11C196.048 184.243 196.195 184.35 196.366 184.43C196.542 184.504 196.739 184.542 196.958 184.542C197.171 184.542 197.368 184.504 197.55 184.43C197.736 184.35 197.896 184.243 198.03 184.11C198.163 183.976 198.267 183.819 198.342 183.638C198.416 183.456 198.454 183.262 198.454 183.054C198.454 182.846 198.416 182.651 198.342 182.47C198.267 182.288 198.163 182.131 198.03 181.998C197.896 181.864 197.736 181.76 197.55 181.686C197.368 181.606 197.171 181.566 196.958 181.566C196.739 181.566 196.542 181.606 196.366 181.686C196.195 181.76 196.048 181.864 195.926 181.998C195.803 182.131 195.707 182.288 195.638 182.47C195.574 182.651 195.542 182.846 195.542 183.054ZM198.958 184.926H198.43V184.302H198.414C198.328 184.43 198.227 184.539 198.11 184.63C197.992 184.72 197.87 184.795 197.742 184.854C197.614 184.912 197.48 184.955 197.342 184.982C197.208 185.008 197.08 185.022 196.958 185.022C196.664 185.022 196.395 184.974 196.15 184.878C195.91 184.776 195.702 184.638 195.526 184.462C195.35 184.286 195.211 184.078 195.11 183.838C195.014 183.598 194.966 183.336 194.966 183.054C194.966 182.771 195.014 182.51 195.11 182.27C195.211 182.03 195.35 181.822 195.526 181.646C195.702 181.47 195.91 181.334 196.15 181.238C196.395 181.136 196.664 181.086 196.958 181.086C197.08 181.086 197.208 181.099 197.342 181.126C197.48 181.152 197.614 181.195 197.742 181.254C197.87 181.312 197.992 181.387 198.11 181.478C198.227 181.568 198.328 181.678 198.414 181.806H198.43V178.878H198.958V184.926Z"
      fill="white" />
    <rect opacity="0.06" y="0.925781" width="348" height="212" fill="url(#pattern0)" />
    <ellipse cx="301.223" cy="23.5754" rx="2.57873" ry="2.64957" fill="#E31D1C" />
    <ellipse cx="301.223" cy="31.59" rx="2.57873" ry="2.64957" fill="#E31D1C" />
    <ellipse cx="301.223" cy="39.6056" rx="2.57873" ry="2.64957" fill="#E31D1C" />
    <ellipse cx="301.223" cy="47.6203" rx="2.57873" ry="2.64957" fill="#E31D1C" />
    <ellipse cx="308.96" cy="27.55" rx="2.57873" ry="2.64957" fill="#E31D1C" />
    <ellipse cx="308.96" cy="35.5646" rx="2.57873" ry="2.64957" fill="#E31D1C" />
    <ellipse cx="308.96" cy="43.5793" rx="2.57873" ry="2.64957" fill="#E31D1C" />
    <ellipse cx="316.696" cy="31.5246" rx="2.57873" ry="2.64957" fill="#E31D1C" />
    <ellipse cx="324.432" cy="35.631" rx="2.57873" ry="2.64957" fill="#E31D1C" />
    <ellipse cx="316.696" cy="39.5392" rx="2.57873" ry="2.64957" fill="#E31D1C" />
    <ellipse cx="301.223" cy="23.5754" rx="2.57873" ry="2.64957" fill="#E31D1C" />
    <ellipse cx="301.223" cy="31.591" rx="2.57873" ry="2.64957" fill="#E31D1C" />
    <path d="M298.966 24.834L300.191 24.9002L300.256 30.7293H298.785C299.494 29.0071 300.32 27.881 298.966 24.834Z"
      fill="#E31D1C" />
    <path d="M303.416 24.9668H302.191L302.127 30.7958H303.674C302.965 29.0736 302.062 28.0138 303.416 24.9668Z"
      fill="#E31D1C" />
    <rect x="299.934" y="25.6953" width="2.44979" height="3.97435" fill="#E31D1C" />
    <ellipse cx="2.6352" cy="2.77381" rx="2.6352" ry="2.77381"
      transform="matrix(0.443056 -0.896494 0.886586 0.462564 313.307 32.6934)" fill="#E31D1C" />
    <ellipse cx="2.6352" cy="2.77381" rx="2.6352" ry="2.77381"
      transform="matrix(0.443056 -0.896494 0.886586 0.462564 320.746 36.5752)" fill="#E31D1C" />
    <path
      d="M317.08 34.2901L317.696 33.2001L323.136 35.9638L322.47 37.3109C321.192 35.8272 320.521 34.5254 317.08 34.2901Z"
      fill="#E31D1C" />
    <path
      d="M319.217 30.2792L318.663 31.4014L324.044 34.2832L324.744 32.8657C322.825 32.6814 321.432 32.995 319.217 30.2792Z"
      fill="#E31D1C" />
    <rect width="2.50344" height="4.16072" transform="matrix(0.443056 -0.896494 0.886586 0.462564 318.316 33.8213)"
      fill="#E31D1C" />
    <ellipse cx="2.63576" cy="2.70657" rx="2.63576" ry="2.70657"
      transform="matrix(0.434263 0.900786 -0.891216 0.453579 310.121 40.0088)" fill="#E31D1C" />
    <ellipse cx="2.63576" cy="2.70657" rx="2.63576" ry="2.70657"
      transform="matrix(0.434263 0.900786 -0.891216 0.453579 302.824 43.7217)" fill="#E31D1C" />
    <path
      d="M306.705 42.116L307.189 43.2744L301.911 46.0346L301.258 44.6807C303.141 44.5357 304.532 44.7743 306.705 42.116Z"
      fill="#E31D1C" />
    <path
      d="M308.561 46.2733L308.018 45.1455L302.682 47.787L303.369 49.2116C304.622 47.7607 305.186 46.4386 308.561 46.2733Z"
      fill="#E31D1C" />
    <rect width="2.50397" height="4.05986" transform="matrix(0.434263 0.900786 -0.891216 0.453579 306.352 43.4053)"
      fill="#E31D1C" />
  </g>
  <rect x="0.5" y="1.42578" width="347" height="211" rx="15.5" stroke="url(#paint1_radial_206_58)" />
  <rect x="0.5" y="1.42578" width="347" height="211" rx="15.5" stroke="url(#paint2_radial_206_58)" />
  <rect x="0.5" y="1.42578" width="347" height="211" rx="15.5" stroke="url(#paint3_radial_206_58)" />
  <defs>
    <filter id="filter0_f_206_58" x="-136.84" y="67.8809" width="612.651" height="271.404" filterUnits="userSpaceOnUse"
      color-interpolation-filters="sRGB">
      <feFlood flood-opacity="0" result="BackgroundImageFix" />
      <feBlend mode="normal" in="SourceGraphic" in2="BackgroundImageFix" result="shape" />
      <feGaussianBlur stdDeviation="36" result="effect1_foregroundBlur_206_58" />
    </filter>
    <pattern id="pattern0" patternContentUnits="objectBoundingBox" width="0.632184" height="1.03774">
      <use xlink:href="#image0_206_58" transform="scale(0.00287356 0.00471698)" />
    </pattern>
    <linearGradient id="paint0_linear_206_58" x1="169.486" y1="183.028" x2="169.486" y2="223.458"
      gradientUnits="userSpaceOnUse">
      <stop stop-color="#FFFBFB" stop-opacity="0.56" />
      <stop offset="1" stop-color="#E31D1C" />
    </linearGradient>
    <radialGradient id="paint1_radial_206_58" cx="0" cy="0" r="1" gradientUnits="userSpaceOnUse"
      gradientTransform="translate(422.111 81.0421) rotate(174.425) scale(570.886 144.67)">
      <stop stop-color="white" />
      <stop offset="1" stop-color="white" stop-opacity="0" />
    </radialGradient>
    <radialGradient id="paint2_radial_206_58" cx="0" cy="0" r="1" gradientUnits="userSpaceOnUse"
      gradientTransform="translate(-31.1482 -122.33) rotate(30.6396) scale(334.56 202.125)">
      <stop stop-color="white" />
      <stop offset="1" stop-color="white" stop-opacity="0" />
    </radialGradient>
    <radialGradient id="paint3_radial_206_58" cx="0" cy="0" r="1" gradientUnits="userSpaceOnUse"
      gradientTransform="translate(-139.63 287.29) rotate(-5.33944) scale(428.266 108.06)">
      <stop stop-color="white" />
      <stop offset="1" stop-color="white" stop-opacity="0" />
    </radialGradient>
    <clipPath id="clip0_206_58">
      <rect y="0.925781" width="348" height="212" rx="16" fill="white" />
    </clipPath>
  </defs>
</svg>